<svg xmlns="http://www.w3.org/2000/svg" xmlns:xlink="http://www.w3.org/1999/xlink" viewBox="0 0 202.41 76.55"><defs><style>.cls-1{fill:none;}.cls-2{fill:#4156a6;}.cls-3{fill:#f26522;}.cls-4{clip-path:url(#clip-path);}</style><clipPath id="clip-path"><path id="_Clipping_Path_" data-name="&lt;Clipping Path&gt;" class="cls-1" d="M109.65,20.09A29.94,29.94,0,1,0,133.34,8.48a29.73,29.73,0,0,0-23.69,11.61"/></clipPath></defs><title>kashef logo</title><g id="Layer_2" data-name="Layer 2"><g id="Layer_1-2" data-name="Layer 1"><g id="_Group_" data-name="&lt;Group&gt;"><path id="_Path_" data-name="&lt;Path&gt;" class="cls-2" d="M161.59,67.92H174q.53-.92,1-1.86H162.67c-.34.63-.7,1.25-1.08,1.86"/><path id="_Path_2" data-name="&lt;Path&gt;" class="cls-2" d="M159.85,10.6h13c-.59-.64-1.21-1.26-1.84-1.86H157.72c.73.6,1.45,1.22,2.12,1.86"/><path id="_Path_3" data-name="&lt;Path&gt;" class="cls-2" d="M108.91,8.74h-3.48c-.63.6-1.25,1.22-1.84,1.86h3.2c.68-.65,1.4-1.27,2.12-1.86"/><path id="_Path_4" data-name="&lt;Path&gt;" class="cls-2" d="M167.14,20.15h12.3q-.47-.95-1-1.86H166.07q.56.92,1.07,1.86"/><path id="_Path_5" data-name="&lt;Path&gt;" class="cls-2" d="M100.58,18.29H98q-.52.92-1,1.86H99.5c.34-.63.69-1.25,1.07-1.86"/><path id="_Path_6" data-name="&lt;Path&gt;" class="cls-2" d="M96.38,27.84H94.09q-.25.92-.45,1.86H95.9q.21-.94.48-1.86"/><path id="_Path_7" data-name="&lt;Path&gt;" class="cls-2" d="M170.74,29.71H182.8q-.2-.94-.45-1.86H170.26q.26.93.48,1.86"/><path id="_Path_8" data-name="&lt;Path&gt;" class="cls-2" d="M94.94,37.4H92.73c0,.34,0,.67,0,1s0,.57,0,.85h2.22q0-.93,0-1.86"/><path id="_Path_9" data-name="&lt;Path&gt;" class="cls-2" d="M171.7,39.26h12c0-.28,0-.56,0-.85s0-.68,0-1h-12q0,.93,0,1.86"/><path id="_Path_10" data-name="&lt;Path&gt;" class="cls-2" d="M95.93,47H93.6q.2.94.44,1.86h2.37q-.27-.93-.49-1.86"/><path id="_Path_11" data-name="&lt;Path&gt;" class="cls-2" d="M170.23,48.82h12.13q.25-.92.45-1.86h-12.1q-.22.94-.48,1.86"/><path id="_Path_12" data-name="&lt;Path&gt;" class="cls-2" d="M166,58.37h12.39q.53-.92,1-1.86H167.08c-.34.63-.7,1.25-1.08,1.86"/><path id="_Path_13" data-name="&lt;Path&gt;" class="cls-2" d="M99.56,56.5H96.91q.47.95,1,1.86h2.75c-.38-.61-.74-1.23-1.08-1.86"/><path id="_Path_14" data-name="&lt;Path&gt;" class="cls-2" d="M106.91,66.06h-3.48c.59.64,1.2,1.26,1.83,1.86h3.8c-.74-.6-1.46-1.22-2.15-1.86"/><polygon id="_Path_15" data-name="&lt;Path&gt;" class="cls-2" points="15.76 56.24 15.06 55.57 14.32 56.32 15.08 57.01 15.78 56.3 16.51 56.95 17.22 56.22 16.49 55.52 15.76 56.24"/><polygon id="_Path_16" data-name="&lt;Path&gt;" class="cls-2" points="20.67 49.29 19.88 48.54 19.1 49.35 19.94 50.06 20.67 49.29"/><path id="_Path_17" data-name="&lt;Path&gt;" class="cls-2" d="M20.13,51.14a.09.09,0,0,0-.07,0c-.06,0-.09.07-.09.09a8.33,8.33,0,0,0-.39,1s0,0,.25.44.23.39.24.39c0,.2-.17.35-.51.47a2.59,2.59,0,0,1-.78.13h0a1,1,0,0,1-.84-.29,1.88,1.88,0,0,1-.16-1v0l0,0a.34.34,0,0,0-.23-.07.48.48,0,0,0-.26.06l0,0v0c0,.85-.38,1.26-1.16,1.26H12.35c-.27,0-.66-.25-1.17-.75l-1.53-1.5c-.87-.65-1.54-1.12-2-1.4a23.9,23.9,0,0,1,3.66-2.07h0v0c.1-.24.19-.51.28-.8l.06-.2v0a.09.09,0,0,0-.07-.09h0s-.06,0-.21.08a32.78,32.78,0,0,0-4.16,2.52h0v0c-.07.41-.12.79-.16,1.15,0,.09.08.18.3.32.41.25.72.45.91.59.73.52,1.09,1,1.09,1.32,0,.18-.19.36-.56.53a3.92,3.92,0,0,1-1.66.32H5.9a2.25,2.25,0,0,0-.88.2,2.48,2.48,0,0,0-.61.36s-.11.15-.24.64a3.48,3.48,0,0,0-.14.69c0,.1.08.24.74.44a5.69,5.69,0,0,1,1,.35h0s0,0,0,0a8.58,8.58,0,0,1-3.11.53c-1.25,0-1.86-.43-1.86-1.33a5.4,5.4,0,0,1,.31-1.21,5.14,5.14,0,0,1,.19-.54h.12c0-.07,0-.19-.09-.19a.08.08,0,0,0-.06,0h0A.57.57,0,0,0,1,53.57c-.06,0-.12,0-.37.52-.13.25-.23.45-.29.59A4,4,0,0,0,0,56.21a1.49,1.49,0,0,0,.8,1.36,3.21,3.21,0,0,0,1.6.37,8.79,8.79,0,0,0,2.32-.36A7.39,7.39,0,0,0,6,57.12c.07,0,.15-.14.22-.65a5.57,5.57,0,0,0,.06-.7c0-.15-.21-.29-.68-.45l-.85-.26L4.7,55l.11-.08a1.79,1.79,0,0,1,1-.29H7.09a4,4,0,0,0,1.83-.4,2.23,2.23,0,0,0,.8-.63v0a2.92,2.92,0,0,0,.08-.49,3.18,3.18,0,0,0,0-.5L11.06,54a2,2,0,0,0,1.12.68h3.94A1.62,1.62,0,0,0,17.45,54a1.33,1.33,0,0,0,1.17.64h.31a1.75,1.75,0,0,0,1.27-.57,1.77,1.77,0,0,0,.56-1.27,3.14,3.14,0,0,0-.62-1.68"/><path id="_Compound_Path_" data-name="&lt;Compound Path&gt;" class="cls-2" d="M22.45,52.49a.76.76,0,0,1,.6.36,1.13,1.13,0,0,1,.26.65,1.67,1.67,0,0,1-.76.14c-.55,0-.55-.24-.55-.31a1.34,1.34,0,0,1,.13-.52c.1-.22.2-.32.31-.32M24,53.87A2.85,2.85,0,0,0,23.43,52a1.19,1.19,0,0,0-.82-.51c-.23,0-.49.19-.8.57a2.33,2.33,0,0,0-.55,1.4,1.76,1.76,0,0,0,.11.9.9.9,0,0,0,.52.24,2.56,2.56,0,0,0,.57.08,6.21,6.21,0,0,0,.9-.05,3.29,3.29,0,0,1-1.14,1.67,5.23,5.23,0,0,1-1.59,1c-.11,0-.19.09-.18.16s0,.07.19.15a2.68,2.68,0,0,0,1.3.37c.08,0,.22-.06.64-.56A7.24,7.24,0,0,0,23.51,56,4.8,4.8,0,0,0,24,53.87"/><polygon id="_Path_18" data-name="&lt;Path&gt;" class="cls-2" points="27.86 50.08 28.59 50.73 29.3 50 28.57 49.3 27.84 50.03 27.14 49.36 26.4 50.1 27.17 50.79 27.86 50.08"/><path id="_Path_19" data-name="&lt;Path&gt;" class="cls-2" d="M37.45,46.8a10.27,10.27,0,0,0-.12,3.14c0,.37-.07,1,0,2l0,1.35c0,.07-.13.16-.36.23a2.17,2.17,0,0,1-.42.09h-.58a2.33,2.33,0,0,1-1.11-.74l-1.53-1.5c-.87-.65-1.54-1.12-2-1.4a23.9,23.9,0,0,1,3.66-2.07h0v0c.1-.24.19-.51.28-.8l.06-.2v0a.09.09,0,0,0-.07-.09h0s-.06,0-.21.08a32.79,32.79,0,0,0-4.16,2.52h0v0c-.07.41-.12.79-.15,1.15,0,.09.08.18.3.32.41.25.72.45.92.59.73.52,1.09,1,1.09,1.32,0,.18-.19.36-.56.53a3.92,3.92,0,0,1-1.66.32h-.58c-.49,0-.81-.1-.95-.3a1.88,1.88,0,0,1-.16-1v0l0,0a.34.34,0,0,0-.23-.07.48.48,0,0,0-.26.06l0,0v0c0,.85-.38,1.26-1.16,1.26h-.29c-.27,0-.55-.23-.84-.69l-.56-.9a.13.13,0,0,0-.1-.06s-.08,0-.1.1c-.17.56-.26.8-.3.91l-.05.11h0l0,0a.06.06,0,0,0,0,0A2.83,2.83,0,0,1,26,54.55,2.41,2.41,0,0,1,25,56a6.27,6.27,0,0,1-1.73,1.21c-.1,0-.16.09-.16.15s.06.08.17.12a3.83,3.83,0,0,0,1.17.29c.2,0,.46-.21.8-.64a6,6,0,0,0,.61-.93,5.85,5.85,0,0,0,.65-1.8.88.88,0,0,0,.46.19h.44A1.62,1.62,0,0,0,28.77,54a1.33,1.33,0,0,0,1.17.64h.74a4,4,0,0,0,1.83-.4,2.23,2.23,0,0,0,.8-.63v0a2.82,2.82,0,0,0,.09-.49,3.3,3.3,0,0,0,0-.5L34.65,54a2,2,0,0,0,1.12.68h.73a1.58,1.58,0,0,0,1-.5,1.77,1.77,0,0,0,.35-.57,1.63,1.63,0,0,0,.15-.65l-.14-3.6,0-.92c.15,0-.36-1.61-.36-1.61"/><path id="_Path_20" data-name="&lt;Path&gt;" class="cls-2" d="M37.59,46.68a.13.13,0,0,0-.09,0,3.64,3.64,0,0,0-.64.72.07.07,0,0,0,0,0h0s0,.21.16,1.14.18,1.54.19,2l0,1.06c0,1.21,0,1.38.06,2.12a4.33,4.33,0,0,0,.68-.94s0-2.57-.08-3.47a15.8,15.8,0,0,0-.21-2.64.09.09,0,0,0-.09-.08"/><path id="_Path_21" data-name="&lt;Path&gt;" class="cls-2" d="M38.94,46.68a.13.13,0,0,0-.09,0,3.64,3.64,0,0,0-.64.72.07.07,0,0,0,0,0h0s0,.21.16,1.14.18,1.54.19,2l0,1.06c0,1.21,0,2.19.06,2.93a.26.26,0,0,0,0,.18l0,0h0s.06,0,.12-.14c.35-.49.39-.65.39-.73V49.4A11.06,11.06,0,0,0,39,46.76a.09.09,0,0,0-.09-.08"/><polygon id="_Path_22" data-name="&lt;Path&gt;" class="cls-2" points="43.95 51.48 43.16 50.73 42.38 51.54 43.22 52.26 43.95 51.48"/><path id="_Compound_Path_2" data-name="&lt;Compound Path&gt;" class="cls-2" d="M53.49,53.33a1.22,1.22,0,0,1,0,.18.81.81,0,0,1-.28,0A1.73,1.73,0,0,1,52,53.08l.31-.47c.14-.18.27-.27.38-.27a.71.71,0,0,1,.6.3,1.08,1.08,0,0,1,.21.67m-.73-1.94a.54.54,0,0,0-.32.06,4.46,4.46,0,0,0-.93,1.22c-.38.65-.75,1-1.09,1H46.52c-.23,0-.46-.17-.67-.5l-.58-1.1s-.06-.1-.12-.1-.1.08-.11.11a8.64,8.64,0,0,0-.36,1.06v0a5.49,5.49,0,0,1,.5,1,3.5,3.5,0,0,1,.27,1.18c0,.25,0,.3,0,.3a3.59,3.59,0,0,1-1.39.88,4.57,4.57,0,0,1-1.62.3,2.07,2.07,0,0,1-1.15-.3,1.08,1.08,0,0,1-.52-1A6.72,6.72,0,0,1,41,54.29q.11-.41.17-.57s0-.13,0-.18h0a.44.44,0,0,0-.22-.08s-.09,0-.38.61c-.16.35-.27.58-.32.72a3.65,3.65,0,0,0-.29,1.28,1.64,1.64,0,0,0,.67,1.4,2.51,2.51,0,0,0,1.53.44,6.15,6.15,0,0,0,2-.34,3.18,3.18,0,0,0,1.66-1.08A2.18,2.18,0,0,0,46,56a2.91,2.91,0,0,0,.13-.5,6.71,6.71,0,0,0,0-1,.83.83,0,0,0,.26.09v0H50.4a1.14,1.14,0,0,0,.76-.37l.35-.39a2.19,2.19,0,0,0,1,.5,2.27,2.27,0,0,0,.54,0,.89.89,0,0,0,.54-.14,1.9,1.9,0,0,0,.32-.46,1.64,1.64,0,0,0,.28-.69,2,2,0,0,0-.36-1.2,1.29,1.29,0,0,0-1.1-.56"/><path id="_Path_23" data-name="&lt;Path&gt;" class="cls-2" d="M55,46.68a.13.13,0,0,0-.09,0,3.6,3.6,0,0,0-.64.72.07.07,0,0,0,0,0h0s0,.25.16,1.14.18,1.54.19,2l0,1.06c0,1.21,0,2.19.06,2.93,0,.1,0,.15,0,.18l0,0h0s.06,0,.12-.14c.35-.49.39-.65.39-.73V49.4a11,11,0,0,0-.21-2.64.09.09,0,0,0-.09-.08"/><polygon id="_Path_24" data-name="&lt;Path&gt;" class="cls-2" points="59.98 50.09 60.71 50.74 61.42 50 60.69 49.3 59.96 50.03 59.27 49.36 58.52 50.1 59.28 50.79 59.98 50.09"/><polygon id="_Path_25" data-name="&lt;Path&gt;" class="cls-2" points="68.4 56.95 69.11 56.22 68.38 55.52 67.64 56.24 66.95 55.58 66.2 56.32 66.97 57.01 67.66 56.3 68.4 56.95"/><path id="_Path_26" data-name="&lt;Path&gt;" class="cls-2" d="M69.17,54.09a1.77,1.77,0,0,0,.56-1.27,3.14,3.14,0,0,0-.62-1.68.09.09,0,0,0-.07,0c-.06,0-.09.07-.09.09a8.41,8.41,0,0,0-.39,1s0,0,.25.44a4.54,4.54,0,0,1,.23.39c0,.2-.17.35-.5.46a2.59,2.59,0,0,1-.78.13H64.41c-.38,0-.57-.23-.57-.63,0,0,0-.11.06-.5,0-.13,0-.21,0-.26h0s0-.12-.06-.12l0,0-.08,0a.75.75,0,0,0-.2,0h0l0,0a2.9,2.9,0,0,0-.17.34,1.23,1.23,0,0,1-.48.54,4.15,4.15,0,0,1-1.15.44,10.3,10.3,0,0,1-2,.27c-1.66,0-2.5-.4-2.5-1.2a3.51,3.51,0,0,1,.18-.8,3.07,3.07,0,0,1,.11-.34h.07c0-.06,0-.13-.06-.14h-.05l0,0a.41.41,0,0,0-.2-.08c-.07,0-.16.05-.43.66A3.09,3.09,0,0,0,56.47,53c0,1.13,1,1.7,3,1.7a7.69,7.69,0,0,0,2-.28,5.53,5.53,0,0,0,1.75-.77,1,1,0,0,0,1.18,1h3.5a1.75,1.75,0,0,0,1.27-.57"/><polygon id="_Path_27" data-name="&lt;Path&gt;" class="cls-2" points="73.83 56.24 73.13 55.58 72.39 56.32 73.15 57.01 73.85 56.3 74.58 56.95 75.29 56.22 74.56 55.52 73.83 56.24"/><path id="_Path_28" data-name="&lt;Path&gt;" class="cls-2" d="M73.11,54.66a1.75,1.75,0,0,0,1.27-.57,1.77,1.77,0,0,0,.56-1.27,3.14,3.14,0,0,0-.62-1.68.09.09,0,0,0-.07,0c-.06,0-.09.07-.09.09a8.33,8.33,0,0,0-.39,1s0,0,.25.44a4.08,4.08,0,0,1,.24.39c0,.2-.17.35-.51.46a2.57,2.57,0,0,1-.79.13h-.39c-.27,0-.55-.23-.84-.69l-.56-.9a.13.13,0,0,0-.1-.06s-.08,0-.1.1c-.17.56-.26.8-.3.91l-.05.09h0l0,0a.06.06,0,0,0,0,0,2.83,2.83,0,0,1,.81,1.37,2.41,2.41,0,0,1-.92,1.5,6.27,6.27,0,0,1-1.73,1.21c-.1,0-.16.09-.16.15s.06.08.17.12a3.83,3.83,0,0,0,1.17.29c.2,0,.46-.21.8-.64a6,6,0,0,0,.61-.93,5.86,5.86,0,0,0,.65-1.8.86.86,0,0,0,.41.18v0Z"/><path id="_Compound_Path_3" data-name="&lt;Compound Path&gt;" class="cls-2" d="M83.61,53.33a1.22,1.22,0,0,1,0,.18.82.82,0,0,1-.28,0,1.73,1.73,0,0,1-1.22-.46l.31-.47c.14-.18.27-.27.38-.27a.71.71,0,0,1,.61.3,1.08,1.08,0,0,1,.21.67M84,51.95a1.29,1.29,0,0,0-1.1-.56.54.54,0,0,0-.32.06,4.46,4.46,0,0,0-.93,1.22c-.38.64-.74,1-1.07,1H79.27c-.22,0-.42-.27-.59-.72-.07-.18-.2-.64-.38-1.36-.29-1.14-.47-1.87-.55-2.17,0,0,0-.11-.09-.11s-.08,0-.1.08a4.62,4.62,0,0,0-.43,1h0L78,53.14c-.06.08-.24.2-.77.36a3.91,3.91,0,0,1-1,.2c-.38,0-.5-.07-.53-.11s-.05-.09-.08-.38h0c0-.09-.15-.09-.18-.09s-.16,0-.19.09a4.69,4.69,0,0,0-.12,1,3.13,3.13,0,0,0,0,.36v0l0,0a1.75,1.75,0,0,0,.8.11,4.58,4.58,0,0,0,1-.13,3.4,3.4,0,0,0,.94-.34c.06,0,.14-.14.29-.62a2.25,2.25,0,0,0,.23.5,1,1,0,0,0,.7.54h1.39a1.14,1.14,0,0,0,.76-.37l.35-.39a2.19,2.19,0,0,0,1,.5,2.14,2.14,0,0,0,.47,0h.07a.89.89,0,0,0,.54-.14,1.89,1.89,0,0,0,.31-.46,1.63,1.63,0,0,0,.28-.69,2,2,0,0,0-.36-1.2"/><path id="_Path_29" data-name="&lt;Path&gt;" class="cls-2" d="M29.48,60.07a4.81,4.81,0,0,0-.57,2.23,4.06,4.06,0,0,0,.56,2.05.15.15,0,0,1-.12,0c-.06,0-.09,0-.1,0a4,4,0,0,1-.7-2.06,4.27,4.27,0,0,1,.7-2.22s0,0,.1,0a.21.21,0,0,1,.12,0"/><path id="_Compound_Path_4" data-name="&lt;Compound Path&gt;" class="cls-2" d="M36,62.38a.52.52,0,0,0-.22-.4.69.69,0,0,0-.44-.17q-.53,0-1.44.93h.83a2.69,2.69,0,0,0,.92-.15c.23-.08.35-.15.35-.21m.43-.14c0,.06-.08.16-.23.31a2.28,2.28,0,0,1-.31.27,2.41,2.41,0,0,1-1.31.41h-1a.39.39,0,0,1-.28-.09,3.13,3.13,0,0,1,0,.65,1,1,0,0,1-.13.41,1.89,1.89,0,0,1-.92.63,3.17,3.17,0,0,1-1.11.22,1.39,1.39,0,0,1-.84-.24A.88.88,0,0,1,30,64a2.69,2.69,0,0,1,.36-1.15q.12-.24.15-.24c.12,0,.18,0,.18.09l-.14.38a1.88,1.88,0,0,0-.15.64.64.64,0,0,0,.3.58,1.2,1.2,0,0,0,.67.17,2.52,2.52,0,0,0,.91-.2,2.43,2.43,0,0,0,.79-.47.69.69,0,0,0,0-.13,2.35,2.35,0,0,0-.11-.65,2.28,2.28,0,0,0-.26-.6,5,5,0,0,1,.19-.58c0-.06,0-.06.07,0l.24.51q.17.31.32.31a.18.18,0,0,0,.12-.05,11.21,11.21,0,0,1,.83-.8,1.66,1.66,0,0,1,1.07-.47.91.91,0,0,1,.63.23.78.78,0,0,1,.26.61"/><path id="_Path_30" data-name="&lt;Path&gt;" class="cls-2" d="M37.63,63.22h-.21q-.45,0-.6-.53a5,5,0,0,1-.1-1.12c0-.19,0-.55,0-1.07a5.08,5.08,0,0,0-.13-1c0-.17-.06-.25-.06-.22a1.55,1.55,0,0,1,.32-.4s0,0,.05,0a9.05,9.05,0,0,1,.17,2v1a1.79,1.79,0,0,0,.05.52.37.37,0,0,0,.37.29h.14Z"/><path id="_Compound_Path_5" data-name="&lt;Compound Path&gt;" class="cls-2" d="M39.24,59.89l-.36.38-.42-.36.39-.4Zm1.3,2.35-.2.37-.29,0a1.52,1.52,0,0,0-.61.12l-.53.22a3.49,3.49,0,0,1-1.15.29h-.31v-.5h.27a4.25,4.25,0,0,0,.85-.13,3.84,3.84,0,0,0,.92-.3q-.22-.11-.78-.49a3.17,3.17,0,0,0-.51-.31c-.07,0-.18.12-.35.35l-.15-.1Q38,61,38.26,61a1.15,1.15,0,0,1,.57.3q.59.46.75.56a1.77,1.77,0,0,0,.92.3h.08s0,0,0,.09"/><path id="_Path_31" data-name="&lt;Path&gt;" class="cls-2" d="M44.11,63.22H43.5a1,1,0,0,0-.56.16c-.05,0-.08.06-.08.08s0,0,.08.05l.48.15c.24.08.36.15.36.22a3,3,0,0,1,0,.39c0,.21-.06.32-.1.34a4,4,0,0,1-.74.26,4.85,4.85,0,0,1-1.29.2,1.76,1.76,0,0,1-.88-.2.8.8,0,0,1-.43-.74,2.21,2.21,0,0,1,.17-.85c0-.08.09-.19.16-.33s.16-.27.18-.27l.12,0c.05,0,.08.05.08.07s0-.08,0-.08-.08.12-.16.37a3,3,0,0,0-.18.69q0,.78,1.07.78a4.83,4.83,0,0,0,1.76-.3,0,0,0,0,0,0,0,0,0,0,0,0,0,0A3.47,3.47,0,0,0,43,64q-.39-.12-.39-.22a2,2,0,0,1,.08-.38,1,1,0,0,1,.13-.34,1.37,1.37,0,0,1,.34-.2,1.22,1.22,0,0,1,.48-.11h.53Z"/><path id="_Compound_Path_6" data-name="&lt;Compound Path&gt;" class="cls-2" d="M45.89,62.63a.68.68,0,0,0,0-.12.64.64,0,0,0-.13-.4.43.43,0,0,0-.37-.18c-.07,0-.15.05-.24.16l-.19.29a1,1,0,0,0,.73.29.46.46,0,0,0,.18,0m.35-.22a.91.91,0,0,1-.15.37,1.24,1.24,0,0,1-.17.25.47.47,0,0,1-.28.07,1.2,1.2,0,0,1-.3,0,1.18,1.18,0,0,1-.58-.29l-.22.25a.6.6,0,0,1-.4.2h-.21v-.5h.21q.31,0,.64-.57a2.47,2.47,0,0,1,.52-.67.29.29,0,0,1,.16,0,.69.69,0,0,1,.59.3,1.08,1.08,0,0,1,.19.65"/><path id="_Path_32" data-name="&lt;Path&gt;" class="cls-2" d="M47.59,63.22h-.21q-.45,0-.6-.53a5,5,0,0,1-.1-1.12c0-.19,0-.55,0-1.07a5.08,5.08,0,0,0-.13-1c0-.17-.06-.25-.06-.22a1.54,1.54,0,0,1,.33-.4s0,0,.05,0A9.05,9.05,0,0,1,47,61v1a1.79,1.79,0,0,0,.05.52.37.37,0,0,0,.37.29h.14Z"/><path id="_Compound_Path_7" data-name="&lt;Compound Path&gt;" class="cls-2" d="M49,62.37c-.13-.5-.3-.79-.5-.89a1.81,1.81,0,0,0-.18.87c0,.08,0,.18,0,.28l.38-.09c.2-.06.31-.12.31-.18m1.39.85H50.2a.84.84,0,0,0-.49.19q-.23.16-.23.24a.82.82,0,0,0,.11.35,1.11,1.11,0,0,0,.52.51,0,0,0,0,1,0,0,2.15,2.15,0,0,1-.18.51,3.54,3.54,0,0,1-1.5-1.26,3.33,3.33,0,0,1-.26-.64,1.81,1.81,0,0,1-.54.06h-.23v-.5h.36a1.22,1.22,0,0,0,.34,0c0-.12,0-.23,0-.35a3.06,3.06,0,0,1,.19-1.12c.09-.24.17-.36.21-.36a.91.91,0,0,1,.49.41,2.54,2.54,0,0,1,.32,1.39c0,.08-.11.17-.34.27a3,3,0,0,1-.45.17,1.77,1.77,0,0,0,.79,1,1,1,0,0,1-.06-.36.9.9,0,0,1,.1-.5,1.11,1.11,0,0,1,1-.49h.14Z"/><rect id="_Path_33" data-name="&lt;Path&gt;" class="cls-2" x="50.24" y="62.72" width="1.1" height="0.5"/><path id="_Path_34" data-name="&lt;Path&gt;" class="cls-2" d="M54.61,62.27a1,1,0,0,1-.27.6.82.82,0,0,1-.63.35.56.56,0,0,1-.34-.11.51.51,0,0,1-.2-.3.65.65,0,0,1-.57.41.63.63,0,0,1-.58-.4.68.68,0,0,1-.61.4h-.27v-.5h.15q.65,0,.65-.74a.24.24,0,0,1,.12,0,.2.2,0,0,1,.11,0,1.58,1.58,0,0,0,.06.57.32.32,0,0,0,.31.17q.47,0,.52-.74a.22.22,0,0,1,.11,0,.25.25,0,0,1,.12,0,1.49,1.49,0,0,0,.06.52.36.36,0,0,0,.37.22.64.64,0,0,0,.39-.14c.11-.08.16-.15.16-.21a2,2,0,0,0-.31-.5l.22-.53c0-.06.05-.07.08,0a2.8,2.8,0,0,1,.2.44,1.59,1.59,0,0,1,.12.51"/><path id="_Path_35" data-name="&lt;Path&gt;" class="cls-2" d="M55.78,62.29a4,4,0,0,1-.7,2.06s0,0-.09,0a.17.17,0,0,1-.12,0,4,4,0,0,0,.56-2.05,4.79,4.79,0,0,0-.57-2.23A.22.22,0,0,1,55,60c.05,0,.09,0,.1,0a4.28,4.28,0,0,1,.7,2.22"/><path id="_Compound_Path_8" data-name="&lt;Compound Path&gt;" class="cls-3" d="M34.07,33.39c0,.61-.29,1-.86,1.62l0,0c-.75.87-1.06.92-1.12.92-.22,0-.74-.16-1.7-1.21-.63-.69-.76-1.1-.76-1.32s.11-.32.71-1l.27-.3c.74-.81,1.35-1.23,1.84-1.23,0,0,.25.09.83.73a2.71,2.71,0,0,1,.83,1.74M64.29,29a.62.62,0,0,0-.54-.37c-.39,0-.57.41-.63.55l-1.42,3.42.12.17a14.27,14.27,0,0,1,1.82,2.8c0,.11-.08.43-.84,1a3.54,3.54,0,0,1-2.14.78,1.85,1.85,0,0,1-1.91-1.13,8.86,8.86,0,0,1-.34-3V33l-.19-.11a1.73,1.73,0,0,0-1.79,0l-.17.1v.2c-.2,2.8-1.12,4.16-2.81,4.16a1.59,1.59,0,0,1-1.53-.86,8.93,8.93,0,0,1-.31-3.28V33l-.17-.11a1.8,1.8,0,0,0-1.82,0l-.19.11v.22c0,2.78-1.18,4.13-3.6,4.13H37.43l-.27,0A7.18,7.18,0,0,1,34.93,37a5.21,5.21,0,0,0,1.83-4.26,7.13,7.13,0,0,0-1.54-4.17c-1.2-1.65-1.74-1.87-2.11-1.87-.76,0-1.83.57-3.27,1.75-2,1.6-2.78,3-2.78,4.87a5.64,5.64,0,0,0,.8,2.94l.63.83a17.64,17.64,0,0,1-3.67.43H11.16c-5.53,0-8.34-1.35-8.34-4a11.35,11.35,0,0,1,.6-2.56c.2-.66.34-1,.38-1.12a.61.61,0,0,0-.24-.75L3.5,29a1.51,1.51,0,0,0-.75-.29c-.31,0-.6.16-1.59,2.25A10,10,0,0,0,0,35.12c0,4.1,3.26,6.18,9.7,6.18h0l14.71,0A13.67,13.67,0,0,0,32,39.35a8.84,8.84,0,0,0,5.19,1.77h9.33A4.32,4.32,0,0,0,50.19,39a3.92,3.92,0,0,0,6.89.07,3.48,3.48,0,0,0,1.06,1.25,3.81,3.81,0,0,0,2.32.77,5.39,5.39,0,0,0,4.12-2.29,6.34,6.34,0,0,0,1.71-3.9,9.91,9.91,0,0,0-.77-3.25A17.84,17.84,0,0,0,64.29,29"/><path id="_Path_36" data-name="&lt;Path&gt;" class="cls-3" d="M90.44,14.72a2,2,0,0,0-.85.28,94.71,94.71,0,0,0-14.65,8.64c-.17.11-.28.19-.47,2.12-.05.49-.09.69-.12.82a1.81,1.81,0,0,0,0,.44c0,.26.12.53,1.59,1.42s2.34,1.45,2.89,1.87C80.92,31.86,82,33.35,82,34.72c0,.13-.11.51-1.18,1.14a12.92,12.92,0,0,1-6.59,1.46H72.51a1.87,1.87,0,0,1-1.9-1.47,10.72,10.72,0,0,1-.31-3.06V26.92a68.94,68.94,0,0,0-.39-9,.61.61,0,0,0-.45.23,23.56,23.56,0,0,0-2.31,2.63c.06,2,.3,9,.3,10a30.74,30.74,0,0,0,.63,6.89c.65,2.31,2,3.48,4,3.48h2.54c4.61-.09,7.69-1.44,9.15-4,.18-.32.42-1.08.42-3.93A6.36,6.36,0,0,0,82.35,29a10.29,10.29,0,0,0-2.86-2.27l-1.82-1.09a90.18,90.18,0,0,1,11.24-6.39l.11-.06.06-.11c.77-1.51,1.28-2.53,1.54-3.09l0-.09a4.5,4.5,0,0,0,.27-.64V15.2a.48.48,0,0,0-.51-.49"/><path id="_Path_37" data-name="&lt;Path&gt;" class="cls-3" d="M56.74,24.89a2,2,0,1,1-2-2,2,2,0,0,1,2,2"/><path id="_Path_38" data-name="&lt;Path&gt;" class="cls-3" d="M61.33,24.89a2,2,0,1,1-2-2,2,2,0,0,1,2,2"/><path id="_Path_39" data-name="&lt;Path&gt;" class="cls-3" d="M59,21.1a2,2,0,1,1-2-2,2,2,0,0,1,2,2"/><path id="_Path_40" data-name="&lt;Path&gt;" class="cls-3" d="M34.69,21.1a2,2,0,1,1-2-2,2,2,0,0,1,2,2"/><path id="_Path_41" data-name="&lt;Path&gt;" class="cls-2" d="M192.87,10.25c-.3-.41-.61-.8-.92-1.2h-16.9c.35.4.7.79,1,1.2Z"/><path id="_Path_42" data-name="&lt;Path&gt;" class="cls-2" d="M198.38,19.81c-.18-.4-.36-.8-.54-1.2H181.55c.2.4.4.79.59,1.2Z"/><path id="_Path_43" data-name="&lt;Path&gt;" class="cls-2" d="M201.41,29.36c-.08-.4-.18-.8-.28-1.2H185q.14.6.27,1.2Z"/><path id="_Path_44" data-name="&lt;Path&gt;" class="cls-2" d="M186.26,38.91h16.14c0-.4,0-.8,0-1.2H186.25c0,.28,0,.55,0,.83,0,.12,0,.25,0,.37"/><path id="_Path_45" data-name="&lt;Path&gt;" class="cls-2" d="M185.16,48.47h16.4c.07-.4.14-.8.2-1.2H185.41c-.08.4-.16.8-.25,1.2"/><path id="_Path_46" data-name="&lt;Path&gt;" class="cls-2" d="M198.7,58q.25-.6.48-1.2H182.33q-.27.6-.56,1.2Z"/><path id="_Path_47" data-name="&lt;Path&gt;" class="cls-2" d="M194.69,67.57c.28-.39.55-.8.81-1.2h-17.8q-.49.61-1,1.2Z"/><g id="_Clip_Group_" data-name="&lt;Clip Group&gt;"><g class="cls-4"><path id="_Compound_Path_9" data-name="&lt;Compound Path&gt;" class="cls-2" d="M144.07,19.83c-1.44,0-2.33-1.83-2.33-4.78s.9-4.89,2.35-4.89c2,0,2.33,3,2.33,4.78,0,3.15-.83,4.89-2.35,4.89m.11-11.14c-2.65,0-4.29,2.43-4.29,6.34A8.58,8.58,0,0,0,141,19.66,3.44,3.44,0,0,0,144,21.31a3.61,3.61,0,0,0,3.18-1.68,8.6,8.6,0,0,0,1.11-4.75c0-3.92-1.49-6.18-4.09-6.18"/><path id="_Compound_Path_10" data-name="&lt;Compound Path&gt;" class="cls-2" d="M127.31,19.83c-1.44,0-2.33-1.83-2.33-4.78s.9-4.89,2.35-4.89c2,0,2.33,3,2.33,4.78,0,3.15-.83,4.89-2.35,4.89m.11-11.14c-2.65,0-4.29,2.43-4.29,6.34a8.58,8.58,0,0,0,1.14,4.62,3.44,3.44,0,0,0,2.95,1.64,3.61,3.61,0,0,0,3.18-1.68,8.61,8.61,0,0,0,1.11-4.75c0-3.92-1.49-6.18-4.09-6.18"/><rect id="_Path_48" data-name="&lt;Path&gt;" class="cls-2" x="118.11" y="8.7" width="1.79" height="12.61"/><rect id="_Path_49" data-name="&lt;Path&gt;" class="cls-2" x="109.85" y="8.7" width="1.79" height="12.61"/><rect id="_Path_50" data-name="&lt;Path&gt;" class="cls-2" x="134.69" y="8.7" width="1.79" height="12.61"/><rect id="_Path_51" data-name="&lt;Path&gt;" class="cls-2" x="151.45" y="8.7" width="1.79" height="12.61"/><path id="_Compound_Path_11" data-name="&lt;Compound Path&gt;" class="cls-2" d="M110.64,35.36c-1.44,0-2.33-1.83-2.33-4.78s.9-4.89,2.35-4.89c2,0,2.33,3,2.33,4.78,0,3.15-.83,4.89-2.35,4.89m.11-11.13c-2.65,0-4.29,2.43-4.29,6.34a8.58,8.58,0,0,0,1.14,4.62,3.44,3.44,0,0,0,2.95,1.64,3.61,3.61,0,0,0,3.18-1.68,8.6,8.6,0,0,0,1.11-4.75c0-3.92-1.49-6.18-4.09-6.18"/><path id="_Compound_Path_12" data-name="&lt;Compound Path&gt;" class="cls-2" d="M144,35.36c-1.44,0-2.33-1.83-2.33-4.78s.9-4.89,2.35-4.89c2,0,2.33,3,2.33,4.78,0,3.15-.83,4.89-2.35,4.89m.11-11.13c-2.65,0-4.29,2.43-4.29,6.34A8.58,8.58,0,0,0,141,35.19a3.44,3.44,0,0,0,2.95,1.64,3.61,3.61,0,0,0,3.18-1.68,8.59,8.59,0,0,0,1.11-4.75c0-3.92-1.49-6.18-4.09-6.18"/><rect id="_Path_52" data-name="&lt;Path&gt;" class="cls-2" x="151.45" y="24.22" width="1.79" height="12.61"/><rect id="_Path_53" data-name="&lt;Path&gt;" class="cls-2" x="159.8" y="24.22" width="1.79" height="12.61"/><rect id="_Path_54" data-name="&lt;Path&gt;" class="cls-2" x="126.46" y="24.22" width="1.79" height="12.61"/><rect id="_Path_55" data-name="&lt;Path&gt;" class="cls-2" x="118.19" y="24.22" width="1.79" height="12.61"/><path id="_Compound_Path_13" data-name="&lt;Compound Path&gt;" class="cls-2" d="M135.76,50.88c-1.44,0-2.33-1.83-2.33-4.78s.9-4.89,2.35-4.89c2,0,2.33,3,2.33,4.78,0,3.15-.83,4.89-2.35,4.89m.11-11.13c-2.65,0-4.29,2.43-4.29,6.34a8.58,8.58,0,0,0,1.14,4.62,3.44,3.44,0,0,0,2.95,1.64,3.61,3.61,0,0,0,3.18-1.68A8.6,8.6,0,0,0,140,45.92c0-3.92-1.49-6.18-4.09-6.18"/><path id="_Compound_Path_14" data-name="&lt;Compound Path&gt;" class="cls-3" d="M119.16,50.88c-1.44,0-2.33-1.83-2.33-4.78s.9-4.89,2.35-4.89c2,0,2.33,3,2.33,4.78,0,3.15-.83,4.89-2.35,4.89m.11-11.13c-2.65,0-4.29,2.43-4.29,6.34a8.58,8.58,0,0,0,1.14,4.62,3.44,3.44,0,0,0,2.95,1.64,3.61,3.61,0,0,0,3.18-1.68,8.6,8.6,0,0,0,1.11-4.75c0-3.92-1.49-6.18-4.09-6.18"/><path id="_Compound_Path_15" data-name="&lt;Compound Path&gt;" class="cls-2" d="M103,50.88c-1.44,0-2.33-1.83-2.33-4.78s.9-4.89,2.35-4.89c2,0,2.33,3,2.33,4.78,0,3.15-.83,4.89-2.35,4.89m.11-11.13c-2.65,0-4.29,2.43-4.29,6.34A8.58,8.58,0,0,0,100,50.71a3.44,3.44,0,0,0,2.95,1.64,3.61,3.61,0,0,0,3.18-1.68,8.6,8.6,0,0,0,1.11-4.75c0-3.92-1.49-6.18-4.09-6.18"/><rect id="_Path_56" data-name="&lt;Path&gt;" class="cls-2" x="126.42" y="39.74" width="1.79" height="12.61"/><rect id="_Path_57" data-name="&lt;Path&gt;" class="cls-2" x="109.96" y="39.74" width="1.79" height="12.61"/><rect id="_Path_58" data-name="&lt;Path&gt;" class="cls-2" x="143.25" y="39.74" width="1.79" height="12.61"/><path id="_Compound_Path_16" data-name="&lt;Compound Path&gt;" class="cls-2" d="M159.42,50.88c-1.44,0-2.33-1.83-2.33-4.78s.9-4.89,2.35-4.89c2,0,2.33,3,2.33,4.78,0,3.15-.83,4.89-2.35,4.89m.11-11.13c-2.65,0-4.29,2.43-4.29,6.34a8.58,8.58,0,0,0,1.14,4.62,3.44,3.44,0,0,0,2.95,1.64,3.61,3.61,0,0,0,3.18-1.68,8.59,8.59,0,0,0,1.11-4.75c0-3.92-1.49-6.18-4.09-6.18"/><path id="_Compound_Path_17" data-name="&lt;Compound Path&gt;" class="cls-2" d="M144.24,66.4c-1.44,0-2.33-1.83-2.33-4.78s.9-4.89,2.35-4.89c2,0,2.33,3,2.33,4.78,0,3.15-.83,4.89-2.35,4.89m.11-11.13c-2.65,0-4.29,2.43-4.29,6.34a8.58,8.58,0,0,0,1.14,4.62,3.44,3.44,0,0,0,2.95,1.64,3.61,3.61,0,0,0,3.18-1.68,8.6,8.6,0,0,0,1.11-4.75c0-3.92-1.49-6.18-4.09-6.18"/><path id="_Compound_Path_18" data-name="&lt;Compound Path&gt;" class="cls-2" d="M119.06,66.4c-1.44,0-2.33-1.83-2.33-4.78s.9-4.89,2.35-4.89c2,0,2.33,3,2.33,4.78,0,3.15-.83,4.89-2.35,4.89m.11-11.13c-2.65,0-4.29,2.43-4.29,6.34A8.58,8.58,0,0,0,116,66.23,3.44,3.44,0,0,0,119,67.87a3.61,3.61,0,0,0,3.18-1.68,8.61,8.61,0,0,0,1.11-4.75c0-3.92-1.49-6.18-4.09-6.18"/><rect id="_Path_59" data-name="&lt;Path&gt;" class="cls-2" x="126.42" y="55.27" width="1.79" height="12.61"/><rect id="_Path_60" data-name="&lt;Path&gt;" class="cls-2" x="134.98" y="55.27" width="1.79" height="12.61"/><rect id="_Path_61" data-name="&lt;Path&gt;" class="cls-2" x="109.86" y="55.27" width="1.79" height="12.61"/><rect id="_Path_62" data-name="&lt;Path&gt;" class="cls-2" x="151.62" y="55.27" width="1.79" height="12.61"/></g></g><path id="_Path_63" data-name="&lt;Path&gt;" class="cls-3" d="M152.3,62.94a31.26,31.26,0,0,1-38,0H104a38.39,38.39,0,0,0,10,8.4h38.69c.81-.47,1.6-1,2.38-1.5l7.37,6.72h16.7L164.37,62.94Z"/><path id="_Path_64" data-name="&lt;Path&gt;" class="cls-3" d="M106,23.35a31.15,31.15,0,0,1,6.74-8.4h-9.83A38.31,38.31,0,0,0,98,23.35Z"/><path id="_Path_65" data-name="&lt;Path&gt;" class="cls-3" d="M105.41,52.14a31.06,31.06,0,0,1-2.78-8.4h-7.3a38.36,38.36,0,0,0,2.2,8.4Z"/><path id="_Path_66" data-name="&lt;Path&gt;" class="cls-3" d="M158,57.25a31.29,31.29,0,0,1-4.24,4.49h9.88l.08-.1a38.28,38.28,0,0,0,4.89-8.3h-8A31.23,31.23,0,0,1,158,57.25"/><path id="_Path_67" data-name="&lt;Path&gt;" class="cls-3" d="M150.72,4.16a38.55,38.55,0,0,0-34.82,0Z"/><path id="_Path_68" data-name="&lt;Path&gt;" class="cls-3" d="M102.42,34.15H95.15a38.37,38.37,0,0,0,0,8.4h7.27a31.13,31.13,0,0,1,0-8.4"/><path id="_Path_69" data-name="&lt;Path&gt;" class="cls-3" d="M112.88,61.74a30.93,30.93,0,0,1-6.83-8.4H98a38,38,0,0,0,4.95,8.4Z"/><path id="_Path_70" data-name="&lt;Path&gt;" class="cls-3" d="M102.6,32.95a30.76,30.76,0,0,1,2.74-8.4H97.48a38,38,0,0,0-2.17,8.4Z"/><path id="_Path_71" data-name="&lt;Path&gt;" class="cls-3" d="M103.85,13.75h10.3a31.27,31.27,0,0,1,38.21-.1l.13.1H162.8a38,38,0,0,0-9.9-8.4H113.73a38.21,38.21,0,0,0-9.88,8.4"/><path id="_Path_72" data-name="&lt;Path&gt;" class="cls-3" d="M160.67,23.35h8a38,38,0,0,0-4.9-8.4h-9.85a30.93,30.93,0,0,1,6.75,8.4"/><path id="_Path_73" data-name="&lt;Path&gt;" class="cls-3" d="M116.2,72.53a38.54,38.54,0,0,0,34.23,0Z"/><path id="_Path_74" data-name="&lt;Path&gt;" class="cls-3" d="M161.22,52.14h7.88a37.92,37.92,0,0,0,2.21-8.4H164a30.78,30.78,0,0,1-2.79,8.4"/><path id="_Path_75" data-name="&lt;Path&gt;" class="cls-3" d="M164.2,42.54h7.28a38.25,38.25,0,0,0,0-8.4h-7.26a31.1,31.1,0,0,1,0,8.4"/><path id="_Path_76" data-name="&lt;Path&gt;" class="cls-3" d="M164,32.95h7.3a38.37,38.37,0,0,0-2.17-8.4H161.3a31.06,31.06,0,0,1,2.74,8.4"/></g></g></g></svg>