<svg xmlns="http://www.w3.org/2000/svg" viewBox="0 0 20.99 20.99"><defs><style>.cls-1{fill:gray;}</style></defs><title>magnify</title><g id="Layer_2" data-name="Layer 2"><g id="Layer_1-2" data-name="Layer 1"><path id="_Compound_Path_" data-name="&lt;Compound Path&gt;" class="cls-1" d="M1.15,14.31,4,11.46A8.58,8.58,0,0,1,3.5,8.74a8.74,8.74,0,1,1,8.74,8.74A8.6,8.6,0,0,1,9.53,17l-3,3a4.1,4.1,0,0,1-2.63,1A3.91,3.91,0,0,1,0,17.08,3.87,3.87,0,0,1,1.15,14.31ZM6,12.92,2.91,16.08a1.4,1.4,0,0,0-.41,1,1.41,1.41,0,0,0,1.41,1.41,1.59,1.59,0,0,0,1-.39L8.07,15A7.56,7.56,0,0,1,6,12.92ZM18.49,8.74A6.24,6.24,0,1,0,12.25,15,6.25,6.25,0,0,0,18.49,8.74Z"/></g></g></svg>