<?xml version="1.0" encoding="utf-8"?>
<!-- Generator: Adobe Illustrator 21.1.0, SVG Export Plug-In . SVG Version: 6.00 Build 0)  -->
<svg version="1.1" id="Layer_1" xmlns="http://www.w3.org/2000/svg" xmlns:xlink="http://www.w3.org/1999/xlink" x="0px" y="0px"
	 viewBox="0 0 164.4 124.1" style="enable-background:new 0 0 164.4 124.1;" xml:space="preserve">
<style type="text/css">
	.st0{fill:#808285;}
	.st1{fill:#E7E8E9;}
</style>
<title>shoar</title>
<path id="_Compound_Path_" class="st0" d="M123.9,39c0.1,0.2,0.2,0.4,0.4,0.6v-4.5c-0.6,0.1-1,0.6-0.9,1.5c0,0.4,0.1,0.7,0.2,1.1
	C123.6,38.2,123.7,38.6,123.9,39 M61.3,35.2L62,34v2.3C61.8,35.9,61.6,35.6,61.3,35.2 M61,30.4l-2,2l-2-2l2-2L61,30.4z M58.7,27.1
	l-2,2l-2-2l2-2L58.7,27.1z M54.5,28.4l2,2l-2,2l-2-2L54.5,28.4z M62,64.8V69h-3.2c-0.7,0-1.5-0.1-2.1-0.5c-0.5-0.3-1-0.8-1.3-1.3
	c-0.3-0.5-0.6-1.2-0.7-1.8c-0.1-0.6-0.2-1.3-0.3-1.9c0-0.7-0.1-1.6-0.1-2.7s-0.1-1-0.1-2.2c-0.1-1.7-0.2-1.9-0.3-3s-0.2-1.9-0.2-2.4
	l2.8-2.3c0.2-0.2,0.4-0.3,0.6-0.4c0.1,0,0.1,0.1,0.1,0.4v11.5c0,1.5,0.9,2.3,2.6,2.3H62z M120.9,75L120.9,75c0-0.1,0.1-0.2,0.1-0.2
	c1-0.4,2-0.8,2.9-1.3l0.4-0.2V67c-0.4-0.2-0.7-0.5-0.9-0.9c-0.3-0.5-0.4-1.1-0.4-1.7c0-0.7,0.1-1.5,0.4-2.2c0.2-0.7,0.5-1.5,0.9-2.1
	V43.5c-1.3-0.3-2.4-1.2-3-2.3c-0.1,0.2-0.3,0.4-0.4,0.6v-6.7c0.1-0.2,0.3-0.4,0.4-0.6c0.4-0.4,0.8-0.8,1.3-1.1
	c0.5-0.3,1.1-0.4,1.7-0.4V4.5H44.1v43.4h0.5c0.7,0,1.3-0.1,2-0.2c0.8-0.1,1.6-0.3,2.4-0.5c0.7-0.2,1.4-0.6,2-1
	c0.5-0.4,0.8-0.9,0.8-1.6c0-0.5-0.2-0.9-0.4-1.3c-0.3-0.5-0.6-1-1-1.5c-0.4-0.5-0.8-1-1.2-1.5c-0.4-0.5-0.8-0.8-1.1-1.2l1.6-3.3
	l0.2-0.2l0.2,0.2c0.6,0.9,1.2,1.6,2,2.3c0.6,0.5,1.3,0.8,2.1,0.8c0.5,0,1.1-0.2,1.4-0.6c0.3-0.4,0.5-0.8,0.7-1.3
	c0.1-0.5,0.3-0.9,0.4-1.3c0.1-0.4,0.4-0.6,0.7-0.6c0.2,0,0.4,0.1,0.5,0.3c0.1,0.2,0.2,0.5,0.2,0.7c0,0.3,0.1,0.6,0.2,0.9
	c0.1,0.3,0.2,0.6,0.3,0.9c0.2,0.3,0.4,0.5,0.7,0.7c0.4,0.2,0.8,0.3,1.2,0.3c0.5,0,1,0,1.4-0.2v4.1c-0.5,0.3-1.1,0.4-1.6,0.4
	c-0.7,0-1.3-0.2-1.8-0.6c-0.5-0.4-1-0.9-1.2-1.6c-0.2,0.6-0.7,1.2-1.2,1.6c-0.5,0.3-1,0.5-1.6,0.5c-0.4,0-0.8-0.1-1.2-0.2
	c0.1,0.5,0.1,1.1,0.1,1.6c0,1.2-0.2,2.4-0.8,3.5c-0.5,0.9-1.3,1.7-2.2,2.3c-1,0.6-2,1.1-3.1,1.3c-1.1,0.2-2.1,0.4-3.2,0.4v4.2
	l0.5-0.5l2.5,2.4l-2.5,2.4l-0.5-0.5V71h0.4c0.4,0,0.8,0,1.3,0s1.1-0.1,1.6-0.2c0.6-0.1,1.1-0.2,1.7-0.3c0.5-0.1,1-0.3,1.5-0.6
	c0.4-0.2,0.8-0.5,1.1-0.8c0.3-0.3,0.4-0.8,0.4-1.2c0-0.4-0.1-0.8-0.3-1.1c-0.2-0.5-0.5-1-0.8-1.5c-0.3-0.5-0.7-1-1.1-1.5
	c-0.4-0.5-0.7-0.9-1.2-1.3l1.7-3.5c0-0.1,0.1-0.2,0.2-0.2s0.2,0.1,0.2,0.2c1.8,2.3,2.8,5.2,3,8.1c0.1,1.4-0.2,2.7-0.8,4
	c-0.5,1-1.2,1.9-2.2,2.5c-1,0.7-2.1,1.1-3.3,1.3c-1.2,0.2-2.4,0.4-3.6,0.4v13.2h80.2V75.8l-0.9-0.1c-0.6-0.1-1.2-0.2-1.8-0.3
	C121.1,75.3,120.9,75.1,120.9,75"/>
<polygon class="st1" points="58.7,27.1 56.7,25.1 55.7,26.1 54.7,27.1 56.7,29.1 "/>
<polygon class="st1" points="61,30.4 60.7,30.1 58.7,32.2 59,32.5 59,32.5 58.7,32.2 58.7,32.2 60.7,30.1 59,28.4 58.3,29.1 
	57,30.4 57.6,31.1 58.2,31.7 59,32.5 60.3,31.1 60.2,31.2 60.3,31.1 "/>
<path class="st1" d="M36.5,46.4c0,0.7,0.2,1.5,0.5,2.2c0.3,0.8,0.9,1.5,1.5,2c0.7,0.5,1.5,0.9,2.3,1.2l0.3,0.1l3-3.3l0,0l-3,3.3
	c0.3,0.1,0.7,0.2,1.1,0.2l1.5-1.7L42.2,52c0.5,0.1,0.9,0.1,1.4,0.1h0.5h0.5c0.9,0,1.9-0.2,2.8-0.4c0.4-0.1,0.7-0.2,1-0.3
	c0.7-0.2,1.4-0.6,2.1-1l0.1-0.1c0.8-0.6,1.5-1.3,2-2.2c0.1-0.2,0.2-0.3,0.2-0.5c0.2-0.6,0.4-1.1,0.5-1.7c0.1-0.4,0.1-0.9,0.1-1.3
	c0-0.3,0-0.6,0-0.9c0-0.2,0-0.5-0.1-0.7l0,0c0,0.2,0,0.5,0.1,0.7c0-0.2,0-0.5-0.1-0.7c0.4,0.2,0.8,0.2,1.2,0.2h0.3
	c0.5,0,1-0.2,1.4-0.5c0.1-0.1,0.3-0.2,0.4-0.3c0.2-0.3,0.5-0.5,0.6-0.8c0.1-0.1,0.1-0.3,0.2-0.4c0.1,0.3,0.2,0.6,0.4,0.8
	c0.1,0.2,0.3,0.4,0.5,0.6l0.2,0.2c0.1,0.1,0.2,0.1,0.3,0.2l0,0H59c0.1,0.1,0.2,0.1,0.4,0.1l0,0l0.2,0.1h0.1h0.1c0.2,0,0.4,0.1,0.6,0
	h0.4h-0.4c0.2,0,0.4,0,0.5,0l0,0l0.4-0.1c0.2-0.1,0.5-0.1,0.7-0.2l0,0c0.2-0.1,0.3-0.2,0.5-0.3c0.5-0.4,0.9-0.8,1.2-1.4
	c-0.3,0.5-0.7,1-1.2,1.4c0.5-0.4,0.9-0.8,1.2-1.4l0.1-0.2l0.2-0.4l0,0c0.1-0.2,0.2-0.5,0.3-0.8l0,0c0-0.1,0.1-0.2,0.1-0.3l0,0
	c0-0.1,0.1-0.3,0.1-0.4l0.1-0.3l0,0v-0.1c0-0.2,0.1-0.4,0.1-0.6c0-0.2,0.1-0.5,0.1-0.7l0,0c0-0.2,0-0.5,0-0.7c0-0.8-0.1-1.5-0.4-2.2
	c-0.2-0.5-0.4-1.1-0.7-1.6l0,0l-0.3-0.4c-0.1-0.2-0.2-0.2-0.3-0.2c0,0-0.1,0-0.1,0l-0.1,0.1l-0.1,0.1l0,0l-0.1,0.1l-0.3,0.5
	l-0.1,0.2l-1,1.6l0,0l0.2,0.3c0.3,0.5,0.6,0.9,0.8,1.3c0.2,0.3,0.3,0.6,0.4,1c0,0,0,0.1,0,0.2c0,0.1,0,0.2,0,0.3
	c-0.1,0.1-0.1,0.2-0.2,0.3c-0.5,0.5-1.2,0.7-1.8,0.6c-0.4,0-0.8-0.1-1.2-0.3l-0.1-0.1l-0.2-0.1c-0.1-0.1-0.3-0.3-0.4-0.5
	c-0.2-0.3-0.3-0.6-0.3-0.9l-0.1-0.3c0-0.2-0.1-0.4-0.1-0.6l0,0c0-0.1-0.1-0.2-0.1-0.3c0-0.1-0.1-0.2-0.1-0.3v-0.1
	c-0.1-0.2-0.3-0.3-0.5-0.3h-0.1l0,0l0,0c-0.3,0-0.5,0.2-0.6,0.5v0.1v0.1v0.1l0,0c-0.1,0.4-0.2,0.7-0.3,1.2c-0.1,0.2-0.1,0.4-0.2,0.6
	c-0.1,0.3-0.3,0.5-0.4,0.7C55.5,38.8,55,39,54.5,39h-0.4l0,0c-0.3,0-0.7-0.1-1-0.3l0,0c-0.3-0.1-0.5-0.3-0.7-0.5
	c-0.6-0.5-1.1-1.1-1.6-1.7l-0.4-0.6l0,0L50,35.8l-0.2,0.2L49,37.6l-0.8,1.7l0.2,0.2c0.3,0.3,0.6,0.6,0.9,0.9s0.7,0.8,1,1.2l0,0
	l0.2,0.2l0.4,0.5l1.7-1.9l-1.7,1.9c0.2,0.3,0.3,0.5,0.5,0.8l0.1,0.2c0.2,0.4,0.4,0.8,0.4,1.3c0,0.1,0,0.2,0,0.3
	c0,0.2-0.1,0.4-0.2,0.6l0,0c-0.1,0.2-0.3,0.5-0.6,0.6c-0.3,0.2-0.7,0.5-1.1,0.6c-0.2,0.1-0.5,0.2-0.7,0.3L49,47.2
	c-0.8,0.2-1.6,0.4-2.4,0.5L46,47.8l-0.3,0.3l0.3-0.3c-0.5,0-1,0.1-1.3,0.1h-0.6c-0.5,0-1.1-0.1-1.6-0.1c-0.7-0.1-1.3-0.3-1.9-0.6
	c-0.5-0.3-1-0.7-1.3-1.2c-0.4-0.6-0.5-1.3-0.5-2c0,0,0-0.1,0-0.1c0-0.4,0.1-0.7,0.2-1.1c0-0.2,0.1-0.4,0.2-0.6l0,0
	c0-0.2,0.1-0.4,0.2-0.5l0.3-1c0.1-0.2,0.1-0.5,0.2-0.7c0-0.5-0.2-0.8-0.7-0.8c-0.3,0-0.5,0.3-0.8,0.8c-0.3,0.6-0.6,1.2-0.9,1.8
	c-0.3,0.7-0.5,1.5-0.7,2.2c-0.1,0.4-0.2,0.8-0.2,1.2l0,0c0,0.2,0,0.5,0,0.7C36.5,46,36.5,46.3,36.5,46.4L36.5,46.4z M64.5,39.3
	L64.5,39.3l-3.5,3.9l0,0L64.5,39.3z M44.1,48.5L44.1,48.5l0.5-0.6L44.1,48.5z"/>
<polygon class="st1" points="59,42.9 59,42.9 59,42.9 "/>
<path class="st1" d="M60.4,43.2c-0.2,0-0.4,0-0.6,0C60,43.2,60.2,43.2,60.4,43.2z"/>
<path class="st1" d="M63.7,33.1c0.3,0.5,0.5,1,0.7,1.6c0.2,0.7,0.4,1.5,0.4,2.2c0,0.2,0,0.4,0,0.7s0,0.5-0.1,0.7
	c0.1-0.5,0.1-0.9,0.1-1.4c0-0.8-0.1-1.5-0.4-2.2C64.2,34.1,64,33.6,63.7,33.1z"/>
<path class="st1" d="M50.2,35.9l0.4,0.6L50.2,35.9L50.2,35.9z"/>
<polygon class="st1" points="55.2,29.1 54.5,28.4 52.4,30.4 53.6,31.6 54.5,32.5 56.5,30.4 55.2,29.1 56.5,30.4 54.5,32.5 
	54.5,32.5 56.5,30.4 "/>
<path class="st1" d="M67,41L67,41l-0.1-0.1L67,41z"/>
<path class="st1" d="M65.4,26.9c0,0.5,0.1,1.3,0.2,2.4v0.2v-0.2c0,0.2,0,0.3,0,0.4v-0.1v0.1c0.1,0.6,0.1,0.9,0.2,1.7
	c0,0.2,0,0.5,0.1,0.8s0,0.4,0,0.6s0,0.6,0,0.8s0,0.6,0,0.9c0,0.2,0,0.3,0,0.5c0,0.3,0,0.7,0,1l0,0c0,0.5,0,0.9,0.1,1.3l2.5-2.8
	L66,37.4c0,0.1,0,0.3,0,0.4c0,0.7,0.1,1.3,0.3,1.9c0,0.2,0.1,0.4,0.2,0.6c0.1,0.2,0.1,0.3,0.2,0.5L67,41c0.1,0.1,0.1,0.3,0.2,0.4
	c0.1,0.1,0.2,0.2,0.2,0.3c0.1,0.2,0.3,0.3,0.5,0.5c0.2,0.2,0.4,0.3,0.6,0.5l0,0l0,0l0.2,0.1L69,43l0.2,0l0.3,0.1h0.2l0.3,0.1h0.2
	h0.3H75c0.9,0,1.7-0.2,2.4-0.7c0.5-0.3,0.9-0.7,1.2-1.1c0.4-0.6,0.7-1.2,0.9-1.8c-0.1,0.2-0.1,0.3-0.2,0.5c0.1-0.2,0.1-0.3,0.2-0.5
	c0.3-0.9,0.4-1.9,0.4-2.8c0-0.2,0-0.4,0-0.7c0-0.1,0-0.2,0-0.3c0,0.1,0,0.2,0,0.3c0-0.2,0-0.4-0.1-0.6c-0.1-0.3-0.1-0.6-0.2-0.8
	c0,0.1,0.1,0.2,0.1,0.3c0-0.1-0.1-0.2-0.1-0.3l0,0v-0.1l-0.1-0.3l0,0v-0.1v0V34V34l0,0c-0.1-0.2-0.1-0.3-0.2-0.5l0,0L79,33.3
	l-0.1-0.2l-0.1-0.2c-0.2-0.4-0.4-0.7-0.7-1l-0.2-0.1c-0.1,0-0.1,0-0.2,0.1h0.1h-0.1c0,0-0.1,0.1-0.1,0.1l-1.9,2.7l-0.1,0.2V35
	l0.1,0.2v0.1c0.4,0.4,0.7,0.7,0.9,1.1l2.4-2.7l-2.4,2.7c0.2,0.2,0.4,0.5,0.6,0.8l1.5-1.7l-1.5,1.7c0.2,0.3,0.4,0.6,0.4,1
	c0,0.2-0.1,0.4-0.3,0.5l-0.1,0.1c-0.1,0.1-0.2,0.1-0.3,0.1l0.3-0.1l-0.3,0.1l0,0c-0.1,0-0.3,0.1-0.4,0.1c-0.3,0-0.6,0.1-0.9,0.1h-4
	c-1.7,0-2.6-0.8-2.6-2.3v-2.3l0,0v-1.4l-1.5,1.6l1.5-1.6v-8.3c0-0.1,0-0.2,0-0.3c0-0.1,0-0.1-0.1-0.1l0,0c-0.1,0-0.1,0-0.2,0.1
	l-0.3,0.2l-0.1,0.1l-1,0.9L67,25.7L65.4,26.9L65.4,26.9l1.2-0.9L65.4,26.9z M77.8,31.9L77.8,31.9L77.8,31.9z"/>
<path class="st1" d="M67,41c0.1,0.1,0.1,0.3,0.2,0.4C67.1,41.3,67,41.1,67,41z"/>
<path class="st1" d="M76.9,38.8L76.9,38.8z"/>
<path class="st1" d="M76.9,38.8c-0.1,0-0.3,0.1-0.4,0.1C76.6,38.8,76.7,38.8,76.9,38.8z"/>
<path class="st1" d="M68.3,24.5l0.3-0.2L68.3,24.5z"/>
<path class="st1" d="M65.6,28.5c-0.1-0.7-0.1-1.3-0.2-1.6l0,0C65.5,27.2,65.5,27.8,65.6,28.5z"/>
<path class="st1" d="M73.1,46.3l-1.8,1.8l0,0l-0.6,0.6l0.6,0.6l0.4,0.4l1.4,1.4l2.5-2.4l-1.9-1.8L73.1,46.3z M71,48.9l-0.2-0.2
	l0.6-0.6l-0.6,0.6L71,48.9z"/>
<polygon class="st1" points="88.2,32 87.1,33.2 85.8,34.4 87.1,35.6 87.6,36.1 89.9,33.6 89.5,33.2 "/>
<polygon class="st1" points="88.2,36.8 88.3,36.8 88.3,36.8 89.5,35.6 89.6,35.5 90.7,34.4 89.5,33.2 89.9,33.6 87.6,36.2 "/>
<path class="st1" d="M126.3,33.7c-0.6-0.4-1.3-0.7-2-0.6l0,0v2.1h0.2c0.4,0,0.7,0.2,0.9,0.4c0.3,0.3,0.5,0.6,0.7,1
	c0.2,0.4,0.4,0.8,0.5,1.2c0.1,0.3,0.2,0.7,0.2,1.1c0,1.1-0.4,1.6-1.2,1.6c-0.4,0-0.7-0.2-1-0.4c-0.1-0.1-0.3-0.3-0.4-0.4v3.7l0,0
	l-0.1,0.1h0.1l0,0c0.2,0,0.4,0.1,0.6,0h0.4l0,0c0.4,0,0.7-0.1,1.1-0.3c0.4-0.2,0.9-0.5,1.2-0.8c0.3-0.4,0.6-0.8,0.8-1.3
	c0.2-0.4,0.2-0.8,0.3-1.3l0,0c0-0.1,0-0.2,0-0.3c0-0.3,0-0.7-0.1-1l-0.6,0.7l0.6-0.7c0-0.4-0.1-0.8-0.2-1.2
	c-0.1-0.7-0.4-1.5-0.8-2.1C127.3,34.7,126.9,34.1,126.3,33.7z"/>
<path class="st1" d="M120.2,38c0,0,0-0.1,0-0.1S120.2,38,120.2,38z"/>
<polygon class="st1" points="86.3,52 86.3,52 86.3,52 "/>
<path class="st1" d="M82.7,39.1L82.7,39.1L82.7,39.1z"/>
<path class="st1" d="M82.6,39.1L82.6,39.1L82.6,39.1z"/>
<path class="st1" d="M82.6,39.1L82.6,39.1L82.6,39.1L82.6,39.1L82.6,39.1z"/>
<path class="st1" d="M120.2,38L120.2,38c0,0,0,0.1,0,0.1l0,0C120.2,38.1,120.2,38.1,120.2,38z"/>
<path class="st1" d="M124.3,43.3v-3.7l0,0v-0.1l0,0c-0.1-0.1-0.2-0.3-0.2-0.4L124,39c-0.1-0.2-0.2-0.4-0.2-0.5
	c-0.1-0.2-0.2-0.5-0.2-0.7c-0.1-0.4-0.1-0.7-0.2-1.1c0-0.8,0.2-1.3,0.7-1.5h0.2V33H124h-0.2h-0.2h-0.2h-0.2l0,0h-0.1l0,0h-0.1h0.1
	h-0.1l-0.2,0.1l-0.3,0.1l-0.2,0.1l0.2-0.1l0.3-0.1l-0.3,0.1l-0.2,0.1l-0.3,0.2l-1.2,1.5c-0.2,0.3-0.3,0.6-0.4,0.9
	c-0.1,0.2-0.1,0.4-0.2,0.6l0,0c0,0.2-0.1,0.4-0.1,0.5l0,0l0,0c0,0,0,0,0,0.1s0,0.1,0,0.2l0,0c0,0.1,0,0.1,0,0.2s0,0.2,0,0.2l0,0
	c0,0,0,0.1,0,0.1s0,0.1,0,0.1l0,0c0,0.1,0,0.2-0.1,0.3l0,0c0,0.1-0.1,0.2-0.2,0.3c-0.4,0.1-0.7,0.1-1.1,0.2H98.1c-0.2,0-0.3,0-0.5,0
	h-0.2l-0.3-0.1l-0.2-0.1l-0.3-0.1l-0.2-0.1c-0.1-0.1-0.3-0.2-0.4-0.3l0.3,0.2L96,38.2c-0.2-0.2-0.4-0.3-0.6-0.5
	c-0.5-0.6-1-1.2-1.4-1.8l-0.1,0l-0.1-0.1l0.1,0.1l-0.2-0.1l0,0l-0.1,0.1l-0.1,0.1l-1.4,2.9l1.4-2.9l0.1-0.1l-0.1,0.1l-1.6,3.3
	l0.5,0.5l-0.5-0.5l0,0l0.5,0.5l0.6,0.7l0.4,0.4l0.2,0.3l0.1,0.2l0,0c0.2,0.2,0.3,0.4,0.5,0.6l0.1,0.1l2.9-3.2l0,0L94.3,42l0.1,0.1
	l0.3,0.5c0.2,0.3,0.3,0.5,0.4,0.8c0.2,0.4,0.4,0.8,0.4,1.3c0,0.6-0.3,1.2-0.8,1.6c-0.6,0.4-1.3,0.8-2,1c-0.4,0.1-0.8,0.2-1.3,0.3
	c-0.3,0.1-0.6,0.1-0.9,0.2h-0.2l0,0l-0.7,0.1h-0.1h-0.6l0,0h-0.4h-0.8l-3.4,3.8l0,0l3.4-3.8h-0.5c-0.4,0-0.7,0-1.1-0.1
	c-0.7-0.1-1.3-0.3-1.9-0.6L84.2,47c-0.1-0.1-0.2-0.2-0.3-0.2l-0.1-0.1c-0.3-0.2-0.5-0.4-0.7-0.6c-0.1-0.2-0.2-0.3-0.3-0.5l0,0
	c-0.2-0.4-0.2-0.9-0.2-1.4c0,0,0-0.1,0-0.1c0-0.2,0-0.4,0-0.5c0-0.1,0-0.1,0-0.2s0.1-0.3,0.1-0.5l0,0c0.1-0.4,0.2-0.8,0.3-1.2
	l0.1-0.2l0.1-0.4l0,0l0.2-0.5c0.1-0.2,0.1-0.5,0.2-0.7c0-0.5-0.2-0.8-0.7-0.8l0,0c-0.1,0-0.1,0-0.2,0h-0.1l-0.1,0.1
	c-0.2,0.1-0.3,0.3-0.4,0.5c0.1-0.2,0.3-0.4,0.4-0.5c-0.2,0.2-0.4,0.4-0.5,0.6L81.8,40l0,0c-0.3,0.5-0.5,1-0.7,1.5L81,41.8l0,0
	c-0.2,0.5-0.3,1-0.5,1.6l0,0l-0.1,0.3L80.4,44l0,0c-0.1,0.3-0.1,0.6-0.1,0.9c0,0.4,0,0.1,0,0.1c0,0.2,0,0.4,0,0.6
	c0,0.8,0.1,1.6,0.3,2.4c-0.1-0.3-0.2-0.7-0.3-1c0.1,0.3,0.1,0.7,0.3,1c0.1,0.2,0.1,0.4,0.2,0.6c0.3,0.5,0.6,1,1,1.5
	c0.2,0.2,0.4,0.4,0.6,0.5c0.2,0.2,0.4,0.3,0.7,0.5c0.2,0.1,0.5,0.3,0.8,0.4l0,0c0.2,0.1,0.4,0.2,0.7,0.2l0,0h0.2l0,0
	c0.3,0.1,0.5,0.1,0.8,0.2l0,0h0.1h0.2l0,0l0.7,0.1h0.3l0,0c0.3,0,0.6,0,0.9,0h0.9c0.6,0,1.2-0.1,1.8-0.2c0.3-0.1,0.7-0.1,1-0.2
	c1-0.2,1.9-0.6,2.8-1.1l0.3-0.2c0.8-0.5,1.4-1.2,1.9-2l0.2-0.4c0.6-1.1,0.8-2.3,0.8-3.5c0-0.2,0-0.5,0-0.7c0,0,0-0.1,0-0.1
	c0-0.3,0-0.5-0.1-0.8l0.3,0.1l0.3,0.1h0.1H98c0.3,0,0.6,0,0.9,0h5.2l0.7-0.7l-0.7,0.7h14.1c1.1,0,2.2-0.5,2.8-1.5
	c0.1-0.2,0.2-0.4,0.3-0.6c0.1,0.2,0.2,0.3,0.3,0.5c0.5,0.7,1.2,1.3,2,1.7c0.2,0.1,0.3,0.1,0.5,0.2L124.3,43.3z M82.5,44L82.5,44
	c0,0,0-0.1,0-0.1S82.5,44,82.5,44z M80.2,45.8L80.2,45.8l2.4-2.7c0-0.1,0-0.1,0-0.2v0.2L80.2,45.8z M85.4,51.9L85.4,51.9l3.6-4l0,0
	L85.4,51.9z M118,39.8l0.7-0.8l0,0L118,39.8z M120.3,37.2L120.3,37.2L124,33l0,0L120.3,37.2z"/>
<path class="st1" d="M120.2,37.5c0,0.1,0,0.1,0,0.2s0,0.2,0,0.2s0-0.1,0-0.2S120.2,37.5,120.2,37.5z"/>
<path class="st1" d="M120.2,37.9L120.2,37.9L120.2,37.9L120.2,37.9z"/>
<path class="st1" d="M121.3,34.5c-0.1,0.2-0.3,0.4-0.4,0.5l1.1-1.3C121.8,34,121.5,34.2,121.3,34.5z"/>
<path class="st1" d="M84.6,51.7L84.6,51.7c0.3,0.1,0.5,0.1,0.8,0.2C85.1,51.9,84.8,51.8,84.6,51.7z"/>
<path class="st1" d="M121.7,41.7c0.5,0.7,1.2,1.3,2,1.7C122.8,43,122.1,42.4,121.7,41.7z"/>
<path class="st1" d="M121.3,41.2L121.3,41.2c-0.1,0.2-0.2,0.4-0.3,0.6C121.1,41.6,121.2,41.4,121.3,41.2z"/>
<path class="st1" d="M96.2,48.4c-0.5,0.8-1.2,1.5-1.9,2C95,49.9,95.7,49.2,96.2,48.4z"/>
<path class="st1" d="M82.3,50.6c-0.2-0.2-0.4-0.3-0.6-0.5C81.9,50.2,82.1,50.4,82.3,50.6c0.2,0.2,0.4,0.3,0.7,0.5
	C82.8,50.9,82.5,50.7,82.3,50.6z"/>
<path class="st1" d="M98.9,43.2c-0.3,0-0.6,0-0.9,0C98.3,43.2,98.6,43.2,98.9,43.2z"/>
<path class="st1" d="M129.8,38.6L129.8,38.6l0.4,3.9c0.1,1,0.2,1.5,0.4,1.5s0.2-0.2,0.5-0.7c0.7-1.2,1.1-2.5,1.3-3.9v-3.6l0,0v-1.4
	l-2.6,2.9L129.8,38.6z"/>
<path class="st1" d="M128.7,27.8l1,9.5l2.6-2.9v-9.3c0-0.2-0.1-0.4-0.2-0.4s-0.2,0.1-0.4,0.3l-2.1,1.7l0,0l-1,0.8L128.7,27.8
	L128.7,27.8z"/>
<path class="st1" d="M36.5,70.5l2.2-2.5c0-0.3-0.1-0.6-0.1-0.8c0-0.2,0-0.3,0-0.5c0-0.2,0.1-0.4,0.1-0.7c0.1-0.4,0.2-0.8,0.3-1.2
	c0.1-0.4,0.3-0.7,0.3-1c0.1-0.2,0.1-0.5,0.2-0.7c0-0.6-0.2-0.9-0.7-0.9c-0.2,0-0.5,0.2-0.8,0.6c-0.3,0.5-0.6,1-0.9,1.6
	c-0.3,0.7-0.5,1.4-0.7,2.2c-0.2,0.7-0.3,1.5-0.3,2.3c0,0.1,0,0.2,0,0.3C36.3,69.7,36.4,70.1,36.5,70.5z"/>
<path class="st1" d="M51.1,59.1l-0.2-0.3L51.1,59.1z"/>
<path class="st1" d="M53.5,64.3L53.5,64.3z"/>
<path class="st1" d="M38.5,73.7c0.7,0.5,1.5,0.9,2.3,1.2c0.4,0.1,0.7,0.2,1.1,0.2c0.4,0.1,0.8,0.1,1.1,0.1h1.1c0.5,0,1,0,1.5-0.1
	l0.7-0.1l-0.7,0.1c0.6-0.1,1.1-0.1,1.7-0.2l0.5-0.1c0.3-0.1,0.6-0.1,0.8-0.2c0.8-0.2,1.7-0.6,2.4-1.1H51l0,0l0.3-0.2L51,73.5
	c0.9-0.6,1.6-1.5,2.1-2.5c0.5-1.3,0.8-2.6,0.8-4l0,0c0,1.4-0.2,2.7-0.8,4c-0.1,0.2-0.2,0.4-0.3,0.6c0.1-0.2,0.2-0.4,0.3-0.6
	c0.5-1.3,0.8-2.6,0.8-4c0,0,0-0.1,0-0.1s0,0.1,0,0.1l0,0c0-0.3,0-0.6,0-0.9l0,0c0-0.1,0-0.2,0-0.3s0-0.4-0.1-0.6s0-0.2-0.1-0.4l0,0
	c0-0.2-0.1-0.4-0.1-0.6l-0.1-0.4l0,0c0-0.1,0-0.2-0.1-0.2s-0.1-0.2-0.1-0.3l0,0c-0.1-0.2-0.1-0.3-0.2-0.5l0,0v-0.1v0l0,0
	c0-0.1-0.1-0.3-0.2-0.4l-0.2-0.4c-0.1-0.2-0.2-0.4-0.3-0.6l-0.2-0.4l-0.2-0.4l-0.2-0.3l0,0l-0.2-0.4l0,0c-0.2-0.3-0.3-0.5-0.5-0.8
	L51,58.8c-0.1-0.1-0.2-0.2-0.2-0.2h-0.1h0.1c0,0-0.1,0-0.1,0c0,0-0.1,0.1-0.1,0.1v0.1l-1.7,3.5c0.4,0.4,0.8,0.9,1.2,1.3l0.3,0.4
	c0.2,0.2,0.3,0.5,0.5,0.7L51,65l0.4-0.4L51,65l0.1,0.2c0.1,0.2,0.3,0.4,0.4,0.6l0,0c0.1,0.3,0.3,0.5,0.4,0.7v0.1v0.1l0.1,0.2
	c0.1,0.3,0.2,0.7,0.3,1c0,0.2,0,0.3-0.1,0.5c-0.1,0.3-0.2,0.5-0.3,0.7c-0.3,0.4-0.7,0.6-1.1,0.8c-0.4,0.2-0.8,0.4-1.2,0.5h-0.2h-0.1
	h-0.1H49c-0.5,0.1-1,0.2-1.4,0.3l-0.6,0.1l-2,2.3l2-2.3L46,71h-0.2h-0.6h-1.1c-0.6,0-1.2-0.1-1.8-0.1c-0.7-0.1-1.3-0.3-1.9-0.6
	c-0.5-0.3-1-0.7-1.3-1.2c-0.2-0.3-0.4-0.7-0.4-1.1l-2.2,2.5c0.1,0.4,0.2,0.9,0.4,1.3C37.3,72.5,37.8,73.2,38.5,73.7z M49.1,70.5
	L49.1,70.5L49.1,70.5L49.1,70.5L49.1,70.5z M44.1,72.6L44.1,72.6l0.4-0.4L44.1,72.6V74l0,0V72.6z"/>
<path class="st1" d="M53.7,65.2L53.7,65.2z"/>
<path class="st1" d="M53.8,65.8L53.8,65.8L53.8,65.8z"/>
<path class="st1" d="M50.9,58.9c-0.1-0.1-0.2-0.2-0.2-0.2C50.8,58.7,50.8,58.8,50.9,58.9z"/>
<polygon class="st1" points="44.3,60.3 44.3,60.3 44.6,60.6 47.1,58.2 47.1,58.2 46.7,57.7 46.7,57.7 44.6,55.8 44.1,56.3 
	44.1,56.3 42.2,58.2 44.1,60.1 44.1,60.1 "/>
<path class="st1" d="M112.8,76.9l2.5-2.4l-0.1-0.1l-2.4-2.3l-1.2,1.2l-0.2,0.2l-1,1l1.8,1.8l-1.5-1.5l1.5,1.5L112.8,76.9z
	 M110.4,74.4L110.4,74.4l0.8-0.8L110.4,74.4z"/>
<path class="st1" d="M119.5,63.8c0,0.3-0.1,0.6-0.1,0.8C119.4,64.3,119.5,64,119.5,63.8z"/>
<path class="st1" d="M119.4,64.7c0,0.2-0.1,0.5-0.2,0.7C119.3,65.2,119.3,64.9,119.4,64.7z"/>
<path class="st1" d="M119.1,65.6c-0.1,0.2-0.2,0.5-0.3,0.7C119,66.1,119,65.8,119.1,65.6z"/>
<path class="st1" d="M101.7,60L101.7,60c-0.1,0.1-0.2,0.2-0.3,0.3l0,0C101.5,60.2,101.6,60.1,101.7,60z"/>
<path class="st1" d="M118.8,66.3L118.8,66.3L118.8,66.3z"/>
<path class="st1" d="M119.1,65.6L119.1,65.6l0.1-0.2l0,0L119.1,65.6z"/>
<path class="st1" d="M108.1,67.5L108.1,67.5L108.1,67.5L108.1,67.5z"/>
<path class="st1" d="M119.4,64.7L119.4,64.7L119.4,64.7L119.4,64.7L119.4,64.7z"/>
<path class="st1" d="M119.5,63.8L119.5,63.8v-0.2l0,0C119.5,63.6,119.5,63.7,119.5,63.8z"/>
<path class="st1" d="M119.6,62.6c0,0,0-0.1,0-0.1S119.6,62.5,119.6,62.6c0-0.4,0-0.9-0.1-1.3c0,0.1,0,0.1,0,0.2s0-0.1,0-0.2v-0.1
	v0.1c0-0.1-0.1-0.3-0.1-0.4s0-0.2-0.1-0.2l0,0l0,0c0-0.2-0.1-0.4-0.2-0.5V60l-0.1-0.2v-0.1l-0.1-0.2l0,0c-0.1-0.2-0.2-0.4-0.3-0.7
	v-0.1l-0.1-0.1l0.1,0.1l-0.1-0.2c-0.2-0.2-0.3-0.3-0.5-0.5l-0.2-0.2l0,0l0,0l-0.2-0.1c-0.1,0-0.1,0-0.2,0.1c0,0-0.1,0.1-0.1,0.1
	l-0.8,1.1l-1.1,1.6v0.1l0,0l-0.1,0.2l0.1,0.1V61V61v0.1c0.4,0.5,0.8,0.9,1.1,1.3l0,0l0.1,0.1l0.3,0.4V63l0,0l0.2,0.3l0,0
	c0,0.1,0.1,0.2,0.1,0.3l0,0c0,0.1,0,0.2,0,0.3c0,0.1,0,0.1,0,0.2c0,0,0,0,0,0.1c-0.1,0.2-0.3,0.4-0.6,0.4l0,0l-0.3,0.1h-0.1
	c-0.2,0-0.5,0.1-0.7,0.1l-0.5,0.5l0.5-0.5h0.3h-0.4h-4.6c-0.1,0-0.3,0-0.4,0l0,0c-0.3,0-0.5-0.1-0.8-0.3l0,0
	c-0.1-0.1-0.1-0.1-0.2-0.2c-0.1-0.1-0.1-0.1-0.2-0.2v-0.1c-0.3-0.5-0.5-1.1-0.7-1.6c-0.1-0.3-0.3-0.6-0.4-0.9
	c0.2,0.3,0.3,0.6,0.4,0.9c0.2,0.6,0.5,1.1,0.7,1.6l0,0c-0.3-0.5-0.5-1.1-0.7-1.6c-0.1-0.3-0.3-0.6-0.4-0.9l-0.1-0.1l-1.5,1.6l0,0
	c-0.1-0.2-0.2-0.4-0.3-0.5c-0.1-0.1-0.1-0.2-0.2-0.3l0,0c0.1,0.1,0.1,0.2,0.2,0.3s0.2,0.4,0.3,0.5l1.5-1.6c-0.1-0.2-0.2-0.4-0.4-0.6
	l-0.1-0.1l-0.1-0.1l0,0l-0.2-0.2l-0.1-0.1l0,0c-0.2-0.3-0.5-0.5-0.8-0.8l0,0l0,0l0,0l0,0c-0.3-0.2-0.7-0.4-1.1-0.4h-0.2h0.2
	c-0.3,0-0.6-0.1-0.8-0.1l0,0c-0.6,0-1.1,0.1-1.6,0.4h-0.1l0,0c-0.2,0.1-0.3,0.2-0.5,0.3l-0.3,0.3l-0.1,0.1c-0.1,0.1-0.2,0.2-0.3,0.3
	l0,0c-0.1,0.2-0.3,0.3-0.4,0.5c-0.1,0.2-0.2,0.4-0.3,0.6v0.1c0,0.1-0.1,0.2-0.1,0.3s-0.1,0.3-0.1,0.5l0,0c-0.1,0.4-0.1,0.8-0.1,1.2
	c0,0.7-0.1,1.1-0.3,1.2c-0.2,0.1-0.4,0.1-0.6,0.1c-0.4,0-0.7,0-1.1,0H94l-0.4,0.4l0.4-0.4h-9.3L80.9,69H89l3.5-3.9L89,69h9.3
	c0.4,0,0.9-0.1,1.3-0.2c0.2-0.1,0.3-0.2,0.5-0.3l0.2-0.1c0.1-0.1,0.2-0.1,0.3-0.2l0,0l0.1-0.1l0.1-0.1c0.1-0.1,0.2-0.2,0.3-0.4l0,0
	l0,0v-0.1l0.1-0.1c0.1-0.2,0.2-0.4,0.3-0.5l0,0l0,0l0,0l0,0l0,0l0.1,0.1l0.1,0.2l0,0l0,0c0.1,0.2,0.3,0.4,0.4,0.6l0,0
	c0.7,0.9,1.8,1.5,3,1.5c0.7,0,1.4-0.2,1.9-0.6c0.2-0.1,0.3-0.3,0.5-0.4l-0.1,0.1l0.1-0.1l0.1-0.1l0.1-0.2v0.1l0.1-0.1l0,0l0,0
	l0.1-0.1l0.2-0.3v-0.1l0,0l0.1-0.1c0.1-0.2,0.2-0.4,0.2-0.6l0,0c-0.1,0.2-0.1,0.4-0.2,0.6c0.1-0.2,0.2-0.4,0.2-0.6l0,0
	c0.3,0.6,0.7,1.2,1.2,1.6c0.3,0.3,0.7,0.4,1.1,0.6l0,0c0.2,0.1,0.4,0.1,0.6,0.1h3.4c0.7,0,1.4-0.1,2-0.4c0.6-0.3,1.2-0.8,1.6-1.4
	v-0.1c0.2-0.3,0.4-0.6,0.5-0.9c0.1-0.2,0.2-0.4,0.3-0.7l0.1-0.2c0.1-0.2,0.1-0.5,0.2-0.7v-0.1c0.1-0.3,0.1-0.6,0.1-0.8
	c0-0.1,0-0.2,0-0.2s0-0.4,0-0.6c0,0.2,0,0.4,0,0.6C119.5,63.2,119.5,62.9,119.6,62.6L119.6,62.6L119.6,62.6z M115.3,60.8L115.3,60.8
	v-0.1V60.8z M100.6,61.8L100.6,61.8z M100.8,67.9l-0.3,0.3l0,0L100.8,67.9L100.8,67.9z M102,66.5l1.8-2.1l0,0L102,66.5z M105.7,66.3
	c-0.4,0-0.7-0.2-1-0.4l0,0c-0.1-0.1-0.2-0.2-0.3-0.4l-0.1-0.2l0,0l0,0l0,0c-0.1-0.1-0.1-0.2-0.2-0.3c0,0.1,0.1,0.2,0.2,0.3l0,0
	c-0.1-0.2-0.2-0.4-0.3-0.5c-0.1-0.2-0.2-0.3-0.2-0.5l-0.1-0.2c-0.1-0.2-0.1-0.4-0.2-0.6c0,0.1,0,0.1,0.1,0.2s0-0.1-0.1-0.2v-0.2v0.2
	c0-0.1-0.1-0.3-0.1-0.4s0-0.2,0-0.2c0-0.2,0-0.3,0-0.5c0-1,0.4-1.5,1.1-1.5c0.1,0,0.3,0,0.4,0.1c0.2,0.1,0.3,0.2,0.5,0.3l0.1,0.1
	l0.2,0.2l0,0l0,0c0.1,0.1,0.2,0.2,0.3,0.3L106,62c0.1,0.1,0.2,0.3,0.2,0.4s0.2,0.4,0.3,0.6s0.1,0.3,0.2,0.5s0,0.1,0.1,0.2
	c0.1,0.2,0.1,0.4,0.1,0.6c0,0.1,0,0.3,0,0.4C106.9,65.8,106.5,66.3,105.7,66.3L105.7,66.3z M109.3,64.2c0.1,0.1,0.1,0.1,0.2,0.2
	C109.5,64.4,109.4,64.3,109.3,64.2L109.3,64.2z M116.7,62.1l2.3-2.5l0,0L116.7,62.1z"/>
<path class="st1" d="M107.7,68.1L107.7,68.1L107.7,68.1L107.7,68.1z"/>
<path class="st1" d="M115.9,64.7l0.4-0.1L115.9,64.7z"/>
<polygon class="st1" points="110.8,64.8 110.8,64.8 110.8,64.8 "/>
<path class="st1" d="M115.9,64.7L115.9,64.7z"/>
<path class="st1" d="M110.8,64.8L110.8,64.8c-0.1,0-0.3,0-0.4,0l0,0C110.5,64.8,110.7,64.8,110.8,64.8z"/>
<path class="st1" d="M101.7,60l0.1-0.1L101.7,60z"/>
<path class="st1" d="M101.9,59.8L101.9,59.8L101.9,59.8L101.9,59.8z"/>
<path class="st1" d="M101,60.8c0.1-0.2,0.2-0.4,0.4-0.5l0,0l0,0C101.2,60.5,101.1,60.7,101,60.8z"/>
<path class="st1" d="M54.4,62.5l2.7-3v-1.4l0,0V51c0-0.1,0-0.2,0-0.3c0,0,0-0.1,0-0.1c0,0,0,0.1,0,0.1c0-0.1-0.1-0.2-0.1-0.2l0,0
	l0,0c-0.1,0-0.3,0.1-0.4,0.2l-0.2,0.2l-2.8,2.3l0,0c0,0.5,0.1,1.3,0.2,2.4c0.1,1.1,0.2,1.3,0.3,3c0,0.2,0,0.4,0,0.5v0.2
	c0,0.6,0.1,0.7,0.1,1.5c0,0.1,0,0.2,0,0.3l2.5-2.7l-2.4,2.7C54.3,61.7,54.4,62.1,54.4,62.5z"/>
<path class="st1" d="M59.7,64.8h-0.4H59.7z"/>
<path class="st1" d="M58.9,64.7L58.9,64.7z"/>
<path class="st1" d="M80.9,69l3.8-4.3H73.9l-2.2,2.5l2.2-2.5H63.1l-0.3,0.3l0.3-0.3h-3.4h-0.4l0,0l-0.4-0.1l0,0
	c-0.2,0-0.4-0.1-0.6-0.2c0.2,0.1,0.4,0.1,0.6,0.2c-0.2,0-0.5-0.1-0.7-0.2c-0.3-0.1-0.5-0.3-0.7-0.5c-0.3-0.4-0.4-1-0.4-1.5v-3
	l-2.7,3c0,0.4,0,0.7,0,1c0,0.6,0.1,1.3,0.3,1.9c0,0.2,0.1,0.4,0.2,0.6s0.1,0.3,0.2,0.4c0-0.1-0.1-0.3-0.2-0.4
	c0.1,0.4,0.3,0.8,0.6,1.2c0.1,0.1,0.1,0.2,0.2,0.3v0.1c0.3,0.4,0.7,0.7,1.1,1c0.4,0.3,0.9,0.4,1.4,0.5l0,0c0.2,0,0.4,0,0.7,0h10.1
	l3.5-3.8L68.9,69h10.8l3.4-3.8L79.7,69H80.9z"/>
<path class="st1" d="M58.9,64.7l0.3,0.1L58.9,64.7z"/>
<path class="st1" d="M59.3,64.8L59.3,64.8z"/>
<path class="st1" d="M105.7,66.3c-0.4,0-0.7-0.2-1-0.4C105,66.2,105.3,66.3,105.7,66.3z"/>
<path class="st1" d="M104.9,61c0.2,0.1,0.3,0.2,0.5,0.3C105.3,61.2,105.1,61.1,104.9,61z"/>
<path class="st1" d="M104.4,58.8c-0.6,0-1.1,0.1-1.6,0.4C103.3,59,103.8,58.8,104.4,58.8z"/>
<path class="st1" d="M130.5,72.4L130.5,72.4l0.2-0.4c0.4-0.8,0.7-1.7,0.8-2.6c0.2-1.1,0.3-2.2,0.3-3.4c0-1.2-0.1-2.4-0.4-3.6
	c-0.1-0.4-0.2-0.9-0.4-1.3l-1.1,1.2l1.1-1.2c-0.1-0.3-0.2-0.6-0.4-0.9l0,0l-0.2-0.4c-0.4-0.6-0.9-1.2-1.5-1.6
	c-0.5-0.3-1.1-0.5-1.8-0.5c-0.6,0-1.2,0.3-1.6,0.7c-0.5,0.5-1,1.1-1.4,1.7v0l0,0V67l0,0v-6.9l-0.2,0.4c-0.1,0.1-0.1,0.3-0.2,0.4
	s-0.2,0.5-0.3,0.8s-0.1,0.3-0.2,0.4l-0.1,0.2v0.1c-0.1,0.3-0.2,0.6-0.2,0.9c-0.1,0.4-0.1,0.7-0.1,1.1c0,0.5,0.1,1,0.2,1.4v0.1
	c0,0.1,0.1,0.1,0.1,0.2c0.1,0.1,0.1,0.2,0.2,0.3v0.1c0.2,0.2,0.4,0.4,0.7,0.6l0,0l0,0l0.2,0.1l0,0c0.3,0.1,0.7,0.2,1,0.3h0.1
	c0.4,0.1,0.9,0.1,1.3,0.1c0.6,0,1.2,0,1.8-0.1c0.5-0.1,0.9-0.1,1.1-0.2c-0.2,0.8-0.5,1.6-1.1,2.2c-0.6,0.8-1.3,1.5-2.1,2.2
	c-0.7,0.6-1.5,1.2-2.3,1.7l0,0l-0.4,0.2c-0.9,0.5-1.8,1-2.8,1.4h-0.1h-0.1c0,0-0.1,0-0.1,0.1s0.3,0.3,0.7,0.4
	c0.4,0.1,0.9,0.2,1.3,0.3l0.5,0.1h0.2l0.8,0.1l0,0v-2.5l0,0v2.6l1.3,0.1c0.7,0,1.3,0.1,1.8,0.1l1.8-2l-1.8,2h0.2
	c0.1,0,0.3-0.1,0.6-0.4c0.3-0.3,0.6-0.6,0.9-0.9c0.3-0.4,0.6-0.8,0.9-1.3C130.2,73.1,130.3,72.8,130.5,72.4z M123.4,66.1
	c0,0-0.1-0.1-0.1-0.2L123.4,66.1l0.1,0.2L123.4,66.1z M129.2,63.3L129.2,63.3L129.2,63.3L129.2,63.3L129.2,63.3
	c-0.5,0.1-0.8,0.2-1.2,0.2h-0.2H127c-1.2,0-1.9-0.4-1.9-1.2c0-0.3,0.1-0.6,0.4-0.9c0.3-0.2,0.6-0.4,0.9-0.4c0.6,0,1.1,0.2,1.6,0.6
	c0.2,0.2,0.4,0.4,0.6,0.7l1-1.1l-1,1.1C128.9,62.7,129,63,129.2,63.3z"/>
<path class="st1" d="M123.3,75.7l-0.5-0.1L123.3,75.7h0.2H123.3z"/>
<polygon class="st1" points="40.8,0.6 127.6,0.6 127.6,22.3 128.3,22.3 128.3,0 40.1,0 40.1,35 40.8,35 "/>
<polygon class="st1" points="127.9,92.3 40.6,92.3 40.6,77.8 40,77.8 40,93 128.6,93 128.6,79.6 127.9,79.6 "/>
<path class="st1" d="M7.6,120.6c-0.2,0.7-0.4,1.5-0.5,2.2l0,0c-0.2-0.7-0.3-1.4-0.6-2.2l-1-3.4h-1l-1.1,3.4
	c-0.2,0.7-0.5,1.4-0.6,2.1l0,0c-0.1-0.7-0.3-1.4-0.5-2.1l-0.9-3.4H0l2,6.7h1.2l1.1-3.2c0.2-0.7,0.5-1.5,0.6-2.2l0,0
	c0.2,0.7,0.4,1.5,0.6,2.2l1,3.2h1.2l2.2-6.7H8.6L7.6,120.6z"/>
<path class="st1" d="M25,120.6c-0.2,0.7-0.4,1.5-0.5,2.2l0,0c-0.1-0.7-0.4-1.4-0.6-2.2l-1-3.4h-1l-1.1,3.4c-0.2,0.7-0.5,1.4-0.6,2.1
	l0,0c-0.1-0.7-0.3-1.4-0.5-2.1l-0.9-3.4h-1.4l2,6.7h1.1l1.1-3.2c0.2-0.7,0.5-1.5,0.6-2.2l0,0c0.2,0.7,0.4,1.5,0.6,2.2l1,3.2H25
	l2.2-6.7h-1.2L25,120.6z"/>
<path class="st1" d="M42.4,120.6c-0.2,0.7-0.4,1.5-0.5,2.2l0,0c-0.2-0.7-0.3-1.4-0.6-2.2l-1-3.4h-1l-1.2,3.4
	c-0.2,0.7-0.5,1.4-0.6,2.1l0,0c-0.1-0.7-0.3-1.4-0.5-2.1l-0.9-3.4h-1.3l2,6.7h1.1l1.1-3.2c0.2-0.7,0.5-1.5,0.6-2.2l0,0
	c0.2,0.7,0.4,1.5,0.6,2.2l1,3.2h1.1l2.2-6.7h-1.1L42.4,120.6z"/>
<path class="st1" d="M52.7,122.3c-0.5,0-0.9,0.3-0.9,0.8s0.3,0.9,0.8,0.9s0.9-0.3,0.9-0.8c0,0,0,0,0-0.1
	C53.6,122.8,53.2,122.4,52.7,122.3C52.8,122.3,52.7,122.3,52.7,122.3z"/>
<path class="st1" d="M67.3,117.2h-1.5l-2,2.3c-0.2,0.2-0.4,0.5-0.6,0.8l0,0v-6.2H62v9.9h1.2v-2.5l0.6-0.7l2.3,3.2h1.5l-3-4
	L67.3,117.2z"/>
<path class="st1" d="M80.5,119.8c0-1.3-0.5-2.8-2.6-2.8c-0.8,0-1.5,0.2-2.2,0.6l0.3,0.8c0.5-0.3,1.1-0.5,1.8-0.5
	c0.8-0.1,1.4,0.5,1.5,1.2c0,0.1,0,0.2,0,0.3v0.1c-2.6,0-4.1,0.9-4.1,2.5c0,1.1,0.8,1.9,1.9,1.9c0.1,0,0.1,0,0.2,0
	c0.8,0,1.6-0.4,2.1-1l0,0l0.1,0.8h1.1c-0.1-0.5-0.1-1.1-0.1-1.6L80.5,119.8z M79.3,121.7c0,0.1,0,0.3-0.1,0.4
	c-0.2,0.7-0.9,1.1-1.6,1.1c-0.6,0-1.1-0.4-1.2-1c0-0.1,0-0.1,0-0.2c0-1.3,1.5-1.6,2.8-1.5L79.3,121.7z"/>
<path class="st1" d="M91.6,120c-0.9-0.3-1.3-0.6-1.3-1.1s0.4-0.9,1.1-0.9c0.5,0,1,0.1,1.4,0.4l0.3-0.9c-0.5-0.3-1.1-0.4-1.7-0.4
	c-1.1-0.1-2.2,0.7-2.3,1.8c0,0.1,0,0.1,0,0.2c0,0.8,0.6,1.5,1.8,1.9c0.9,0.3,1.3,0.7,1.3,1.2s-0.4,1-1.3,1c-0.6,0-1.1-0.2-1.6-0.5
	l-0.3,0.9c0.6,0.3,1.2,0.5,1.9,0.5c1.6,0,2.5-0.8,2.5-2C93.3,121.1,92.7,120.5,91.6,120z"/>
<path class="st1" d="M105.2,117.1c-0.4,0-0.9,0.1-1.3,0.3c-0.4,0.2-0.7,0.5-0.9,0.9l0,0v-4.2h-1.2v9.9h1.2v-4.1c0-0.2,0-0.4,0.1-0.6
	c0.2-0.7,0.9-1.2,1.6-1.2c1.2,0,1.6,0.9,1.6,2v3.9h1.2v-4C107.6,117.6,106.1,117.1,105.2,117.1z"/>
<path class="st1" d="M119.2,117.1c-2,0-3.2,1.6-3.2,3.6c-0.2,1.7,1.1,3.2,2.8,3.4c0.2,0,0.3,0,0.5,0c0.8,0,1.5-0.1,2.2-0.4l-0.2-0.9
	c-0.6,0.3-1.2,0.4-1.9,0.3c-1.2,0.1-2.2-0.8-2.3-2c0-0.1,0-0.2,0-0.3h4.7c0-0.2,0-0.4,0-0.6C122,119,121.4,117.1,119.2,117.1z
	 M117.2,119.9c0-1.1,0.8-1.9,1.9-2c1,0,1.7,0.8,1.7,1.8c0,0.1,0,0.2,0,0.2H117.2z"/>
<path class="st1" d="M131.4,114.5c-0.6,0.6-0.8,1.5-0.8,2.3v0.3h-0.9v0.9h0.9v5.8h1.2v-5.8h1.6v-0.9h-1.6v-0.4c0-1,0.3-1.9,1.3-1.9
	c0.3,0,0.5,0,0.8,0.2l0.2-0.9c-0.3-0.1-0.7-0.2-1-0.2C132.4,113.9,131.8,114.1,131.4,114.5z"/>
<path class="st1" d="M141.6,122.3c-0.5,0-0.9,0.3-0.9,0.8s0.3,0.9,0.8,0.9s0.9-0.3,0.9-0.8c0,0,0,0,0-0.1
	C142.4,122.8,142.1,122.4,141.6,122.3C141.6,122.3,141.6,122.3,141.6,122.3z"/>
<rect x="150.9" y="117.2" class="st1" width="1.2" height="6.7"/>
<path class="st1" d="M151.5,114.6c-0.4,0-0.8,0.3-0.8,0.7c0,0,0,0,0,0c0,0.4,0.3,0.8,0.8,0.8s0.8-0.3,0.8-0.8
	C152.2,114.9,151.9,114.6,151.5,114.6z"/>
<path class="st1" d="M164,117.1c-0.9,0-1.6,0.6-1.9,1.5h-0.1v-1.3H161c0,0.6,0.1,1.3,0.1,2.1v4.6h1.2v-3.6c0-0.2,0-0.4,0.1-0.6
	c0.1-0.9,0.8-1.5,1.6-1.6c0.1,0,0.3,0,0.4,0v-1.1C164.3,117.1,164.1,117.1,164,117.1z"/>
</svg>
